<?xml version="1.0" encoding="utf-8"?>
<!-- Generator: Adobe Illustrator 22.1.0, SVG Export Plug-In . SVG Version: 6.00 Build 0)  -->
<svg version="1.1" id="Слой_1" xmlns="http://www.w3.org/2000/svg" xmlns:xlink="http://www.w3.org/1999/xlink" x="0px" y="0px"
	 viewBox="0 0 76.4 76.4" style="enable-background:new 0 0 76.4 76.4;" xml:space="preserve">
<style type="text/css">
	.st0{fill:#C484C2;}
	.st1{fill:#FFFFFF;}
	.st2{font-family:'Montserrat-Bold';}
	.st3{font-size:16.2563px;}
</style>
<circle class="st0" cx="38.2" cy="38.2" r="38.2"/>
<g>
	<path class="st1" d="M68.3,35.4c0-1.3-1-2.3-2.2-2.5c-0.4,0-0.4-0.2-0.4-0.5c0-1.5,0-3.1,0-4.6c0-1.3-0.3-2.5-1.1-3.6
		c-1.2-1.5-2.8-2.1-4.6-2.1c-2.9,0-5.9,0-8.8,0c-12,0-24,0-36,0c-1.9,0-3.6,0.6-4.8,2.2c-0.6,0.8-0.9,1.7-1.1,2.6
		c0,7.5,0,15.1,0,22.6c0,0.1,0.1,0.1,0.1,0.2c0.2,1.4,0.8,2.5,1.9,3.3c1.1,0.9,2.4,1.3,3.8,1.3c2.9,0,5.8,0,8.7,0
		c12,0,24.1,0,36.1,0c1.4,0,2.6-0.3,3.7-1.1c1.5-1.1,2.1-2.7,2.1-4.5c0-1.6,0-3.1,0-4.7c0-0.3,0.1-0.5,0.4-0.5
		c1.2-0.2,2.2-1.2,2.2-2.5C68.3,39.1,68.3,37.3,68.3,35.4z M59.8,51.7c-7.5,0-15,0-22.5,0s-15,0-22.5,0c-0.8,0-1.6-0.1-2.2-0.7
		c-0.6-0.6-0.9-1.3-0.9-2.1c0-7.1,0-14.1,0-21.2c0-1.7,1.2-2.9,3-2.9c11,0,22,0,33,0c4,0,8.1,0,12.1,0c1.5,0,2.5,0.7,2.8,2
		c0.1,0.4,0.1,0.7,0.1,1.1c0,6.9,0,13.8,0,20.7C63,50.5,61.7,51.7,59.8,51.7z"/>
	<text transform="matrix(1.04 0 0 1 14.8792 43.0082)" class="st1 st2 st3">&gt;88%</text>
</g>
</svg>
