<svg xmlns="http://www.w3.org/2000/svg">
    <symbol id="authorization" viewBox="0 0 21000 21000">

        <g id="_247038856">
            <circle fill="#B4CA16" cx="10500" cy="10500" r="10500"/>
            <path fill="#FFFFFF"
                  d="M7789 5866c320,-197 715,-98 912,222 197,320 98,715 -222,912 -690,419 -1233,961 -1602,1676 -1035,2021 -148,4535 1922,5472 2342,1060 5053,-296 5595,-2810 370,-1676 -394,-3401 -1873,-4289 -222,-123 -370,-320 -370,-567 -24,-271 99,-468 321,-616 222,-148 468,-123 690,0 370,222 739,469 1035,789 2041,1985 2187,5227 321,7370 -715,813 -1602,1355 -2638,1651 -1706,525 -3912,-204 -5126,-1331 -666,-641 -1134,-1405 -1430,-2292 -669,-2340 302,-4867 2465,-6187z"/>
            <path fill="#FFFFFF"
                  d="M10599 5127c74,24 172,49 246,98 197,124 320,321 320,567 0,1578 0,3131 0,4708 0,370 -295,665 -665,665 -370,0 -665,-295 -665,-665 0,-1577 0,-3130 0,-4708 0,-296 197,-542 468,-641 24,0 49,0 74,-24 74,0 148,0 222,0z"/>
        </g>

    </symbol>
    <symbol id="phone" viewBox="0 0 85.2 85.2">
        <g>
            <path fill="#4E4E4E" d="M64.9,59.1C65,59,65.1,59,65.3,59c0,0,0,0,0,0.1C65.2,59.1,65.1,59.1,64.9,59.1z"/>
            <circle fill="#B4CA16" cx="42.6" cy="42.6" r="42.6"/>
            <path fill="#FFFFFF" d="M42.1,71.3c-1.1-0.2-2.1-0.5-2.9-1.2c-1.1-0.9-1.8-2-2-3.4c-0.1-0.5-0.3-0.7-0.7-0.8
		c-5.3-1.8-9.1-5.2-11.7-10.1c-0.2-0.3-0.4-0.5-0.7-0.6c-4.6-0.7-8.4-4.2-9.5-8.7c-1.2-4.9,0.9-9.9,5.2-12.5
		c0.4-0.3,0.7-0.6,0.8-1.1c0.9-5.2,3.3-9.5,7.2-13c3.4-3.1,7.4-4.9,11.9-5.5c4.4-0.6,8.7,0.1,12.7,2c3.8,1.8,6.8,4.5,9.1,8.1
		c1.7,2.7,2.9,5.6,3.3,8.7c0.1,0.4,0.3,0.6,0.6,0.7c3,1.8,4.9,4.5,5.5,8c0.7,4.5-0.8,8.2-4.3,11.1c-2.2,1.8-4.8,2.6-7.7,2.4
		c-2.7-0.2-5-2.5-5-5.3c-0.1-4.2-0.1-8.3,0-12.5c0-2.1,1.1-3.7,2.9-4.8c0.3-0.2,0.4-0.3,0.3-0.6c-1.6-5.6-6.7-9.9-12.4-10.6
		c-7.1-0.9-13.6,3-16.1,9.7c-0.1,0.4-0.4,0.8-0.3,1.2c0,0.4,0.6,0.4,0.9,0.7c1.5,1.2,2.3,2.7,2.4,4.6c0,4,0,8,0,12
		c0,2.5-1.4,4.5-3.8,5.3c-0.4,0.1-0.4,0.3-0.2,0.6c2.2,3.8,5.4,6.4,9.5,7.9c0.3,0.1,0.4,0.1,0.6-0.2c1.1-2.1,2.9-3.3,5.3-3.2
		c2.3,0.1,4,1.3,5,3.4c1.5,3.3-0.7,7.3-4.3,7.8c-0.2,0.1-0.4,0-0.6,0.1C42.7,71.3,42.4,71.3,42.1,71.3z"/>
        </g>
    </symbol>
    <symbol id="mail" viewBox="0 0 85.2 85.2">
        <circle fill="#B4CA16" cx="42.6" cy="42.6" r="42.6"/>
        <path fill="#FFFFFF" d="M68,27.1c0-1.6-0.9-2.6-2.1-3.4c-0.8-0.5-1.8-0.6-2.7-0.6c-13.7,0-27.4,0-41.1,0c-0.2,0-0.3,0-0.5,0
	c-2.3,0.1-4.5,1.8-4.5,4.5c0,10,0,20.1,0,30.1c0,2.2,1.4,3.6,2.9,4.2c0.6,0.2,1.3,0.3,2,0.3c13.7,0,27.4,0,41.1,0c0.2,0,0.3,0,0.5,0
	c1.5-0.1,2.8-0.7,3.7-2c0.5-0.6,0.6-1.4,0.7-2.1c0-10.3,0-20.6,0-30.8C68,27.2,68,27.1,68,27.1z M62.9,26.2
	c-0.1,0.1-0.2,0.2-0.3,0.3C56.1,33,49.5,39.6,43,46.1c-0.2,0.2-0.3,0.4-0.6,0.1c-6.7-6.6-13.4-13.3-20.2-20
	C35.8,26.2,49.3,26.2,62.9,26.2z M20.3,56.7c0,0-0.1,0.1-0.2,0.2c0-9.5,0-19,0-28.5l0.1-0.1c0.1,0.1,0.1,0.3,0.2,0.4
	c4.6,4.5,9.1,9,13.7,13.6c0.2,0.2,0.4,0.3,0.1,0.6C29.6,47.4,25,52.1,20.3,56.7z M22.3,59L22.3,59c0.1-0.2,0.2-0.3,0.3-0.4
	c4.5-4.5,9.1-9,13.6-13.6c0.3-0.3,0.5-0.3,0.8,0c1.5,1.5,3,3,4.4,4.4c0.9,0.9,1.7,0.9,2.5,0c1.5-1.5,3-2.9,4.4-4.4
	c0.2-0.2,0.3-0.2,0.5,0c4.6,4.6,9.2,9.2,13.8,13.9c0,0,0.1,0.1,0.1,0.2C49.3,59,35.8,59,22.3,59z M65.1,56.9
	c-0.1-0.1-0.3-0.2-0.4-0.3c-4.5-4.5-9-9-13.6-13.6c-0.2-0.2-0.4-0.3-0.1-0.6c4.6-4.6,9.3-9.2,13.9-13.9c0,0,0,0,0.1-0.1
	C65.1,37.9,65.1,47.4,65.1,56.9z"/>
    </symbol>
    <symbol id="promo" viewBox="0 0 87.3 109">
        <path fill="#FF4132" d="M39.4,109c-1.3-0.6-2.7-0.5-4.1-0.8C17.5,104.8,3.5,90.5,0.6,72.6C-1.3,60.8,1.1,50,8,40.2
	c2.4-3.5,5-7,7.5-10.5c0.4-0.6,0.7-0.6,1.1-0.1c1.8,1.9,3.7,3.7,5.5,5.5c1.6,1.6,3.5,2.2,5.6,1.3c2.1-0.9,3.1-2.6,3.1-4.9
	c0-4.5,0.6-8.9,2.3-13.1c3.4-8,9.1-13.8,17-17.5c0.8-0.4,1.7-1.2,2.3-0.8c0.5,0.3,0.5,1.5,0.8,2.3c1.6,5.8,4.4,11.2,7.5,16.4
	c4.5,7.5,9.9,14.3,15.7,20.9c4.8,5.4,8.3,11.6,9.9,18.7c1.7,7.2,1,14.4-1.6,21.2c-5.9,15.9-17.3,25.5-34,28.8
	c-1.2,0.2-2.4,0.1-3.6,0.6c-0.6,0-1.1,0-1.7,0c-0.4-0.2-0.7-0.2-1.1,0c-1,0-2,0-3,0c-0.1-0.1-0.3-0.1-0.5-0.1s-0.4-0.1-0.6,0.1
	C40.1,109,39.8,109,39.4,109z"/>
        <path fill="#2A2A2A" d="M44.5,109c0.4-0.3,0.7-0.3,1.1,0C45.2,109,44.9,109,44.5,109z"/>
        <path fill="#7C7C7C" d="M40.5,109c0.1-0.4,0.4-0.2,0.6-0.2c0.1,0,0.1,0.1,0.1,0.1s0,0.1-0.1,0.1C40.9,109,40.7,109,40.5,109z"/>
        <path fill="#4F4F4F" d="M41.1,109c0-0.1,0-0.1,0-0.2c0.2,0,0.4,0,0.4,0.2C41.4,109,41.2,109,41.1,109z"/>
        <g>
            <path fill="#FFFFFF" d="M30.1,83.6c2.6-3.8,5.1-7.4,7.6-11.1c4-5.8,8-11.6,11.9-17.5c0.4-0.6,0.9-0.9,1.6-0.8c1.9,0.1,3.9,0,5.8,0
		c0.1,0.4-0.2,0.6-0.3,0.8c-6.3,9.3-12.7,18.5-19,27.8c-0.4,0.6-0.8,0.8-1.5,0.8C34.3,83.5,32.3,83.6,30.1,83.6z"/>
            <path fill="#FFFFFF" d="M40.7,62.7c-0.1,2.2-0.9,4.9-3.7,6.4c-2.7,1.5-5.6,1.4-8.3-0.1c-0.8-0.4-1.4-1-1.9-1.7
		c-3.4-4.4-1.5-11.6,3.5-13.1C35.2,52.7,40.7,55.2,40.7,62.7z"/>
            <path fill="#FFFFFF" d="M62.2,75.1c0,8.6-7.1,10.1-11.3,8.1c-2.5-1.1-3.7-3.2-4.1-5.8c-0.6-3.6,0.7-7.1,3.4-8.7s5.6-1.6,8.3-0.1
		C61.3,70.2,62.2,72.8,62.2,75.1z"/>
        </g>
        <path fill="#FF4132" d="M31.1,61.9c0-0.8,0-1.6,0.3-2.3c0.3-0.7,0.7-1.3,1.5-1.3s1.2,0.5,1.4,1.2c0.5,1.6,0.5,3.2,0,4.8
	c-0.2,0.7-0.7,1.3-1.5,1.2c-0.9,0-1.2-0.6-1.5-1.3C31.1,63.5,31,62.7,31.1,61.9z"/>
        <path fill="#FF4132" d="M56.2,75.8c0,0.9,0,1.8-0.4,2.6c-0.3,0.6-0.7,1-1.4,1S53.2,79,53,78.5c-0.7-1.8-0.7-3.6,0-5.4
	c0.2-0.6,0.7-0.9,1.3-0.9c0.7,0,1.1,0.4,1.4,1C56.2,73.9,56.3,74.9,56.2,75.8z"/>

    </symbol>

    <symbol id="heart" viewBox="0 0 143.8 143.8">
        <circle fill="#EAEAEE" cx="71.9" cy="71.9" r="71.9"/>
        <path fill="#7D7D7D" d="M103.3,63.2c-2-12.9-12.7-17.2-21.2-15.8c-4.2,0.7-7.6,3-10.5,6.1c-0.4,0.4-0.6,0.4-1,0
	c-4.6-4.9-10.1-7.2-16.7-6.1c-4.6,0.8-8.5,2.9-11.4,6.8c-2.7,3.6-3.8,7.9-3.9,13.1c-0.1,1,0.2,2.5,0.7,3.9c1.2,3.7,3.3,6.9,5.6,9.9
	c5,6.6,10.9,12.4,17.1,17.7c2.2,1.9,4.5,3.7,7,5.1c1.4,0.8,2.7,0.8,4.1,0c0.9-0.5,1.8-1.1,2.7-1.7c5.5-4,10.5-8.7,15.2-13.6
	c3.5-3.7,6.8-7.6,9.4-12.1C103,72.5,104.1,68.1,103.3,63.2z M95.9,73.4c-2.2,3.8-5,7.1-8,10.3c-4.5,4.9-9.3,9.5-14.7,13.4
	c-2.6,1.9-1.7,2-4.2,0c-7.9-6-15.1-13-21.1-21.2c-1.3-1.8-2.5-3.8-3.3-6c-0.4-1.1-0.7-2.2-0.6-3c0.1-3.2,0.6-5.8,2-8.2
	c2.2-3.7,5.5-5.3,9.4-5.8C61,52.2,65,55,68.3,59.4c0.1,0.1,0.2,0.3,0.3,0.4c1.4,2.1,3.5,2.1,4.9,0c1.7-2.6,3.9-4.7,6.7-6
	c8-3.7,16.8,1.8,17.8,11C98.5,68.2,97.5,70.8,95.9,73.4z"/>
    </symbol>

    <symbol id="user" viewBox="0 0 143.8 143.8">
        <circle fill="#EAEAEE" cx="71.9" cy="71.9" r="71.9"/>
        <g>
            <path fill="#7D7D7D" d="M73.1,33.4C51.6,32.7,34,49.5,33.4,70.7c-0.6,21.8,16.5,39.1,37.6,39.6c21.1,0.4,38.7-15.9,39.4-37.3
		C111,51.6,94.2,34,73.1,33.4z M93.3,97c-5.2,4.4-11.2,7-18,7.7c-1.1,0.1-2.3,0.2-3.4,0.2c-8-0.1-15.1-2.6-21.2-7.7
		c-0.5-0.4-0.6-0.8-0.5-1.4c1.6-9.4,8.9-16.7,18.3-18.2c12-2,23.5,6.4,25.3,18.5C93.7,96.5,93.6,96.7,93.3,97z M98.3,91.6
		c-3.6-11.9-14.2-19.5-25.8-19.7c-11.9-0.3-23.2,7.2-27,19.6c-8.2-10.1-10.2-28.5,2-41.9c12.3-13.5,33.4-14.4,46.8-1.9
		C107.8,60.2,107.6,79.7,98.3,91.6z"/>
            <path fill="#7D7D7D" d="M71.9,41.6c-7.6,0-13.8,6.2-13.8,13.7c0,7.7,6.2,13.8,13.8,13.8s13.7-6.2,13.7-13.8
		C85.6,47.8,79.4,41.6,71.9,41.6z M71.8,63.6c-4.5,0-8.2-3.7-8.2-8.3c0-4.5,3.7-8.2,8.2-8.2s8.3,3.7,8.3,8.2
		C80.1,59.9,76.4,63.6,71.8,63.6z"/>
        </g>
    </symbol>

    <symbol id="basket" viewBox="0 0 143.8 143.8">
        <circle fill="#EAEAEE" cx="71.9" cy="71.9" r="71.9"/>
        <g>
            <path fill="#7D7D7D" d="M110.8,60.7c-0.1-1.3-1.3-2.3-2.7-2.3c-4.1,0-8.1,0-12.2,0c-0.6,0-0.9-0.1-1.2-0.7c-0.8-1.5-1.8-3-2.6-4.4
		c-2.3-3.8-4.6-7.7-6.9-11.5c-0.6-1.1-1.5-1.7-2.8-1.5c-2.1,0.2-3,2.4-1.9,4.2c2.6,4.3,5.2,8.7,7.8,13c0.1,0.2,0.4,0.5,0.3,0.8
		c-11.2,0-22.4,0-33.7,0c0.7-1.2,1.4-2.3,2-3.4c2.1-3.5,4.2-7,6.3-10.5c0.9-1.6,0.4-3.3-1.1-4c-1.4-0.6-2.7-0.1-3.6,1.3
		C55.3,47,52.2,52.2,49,57.5c-0.3,0.6-0.7,0.8-1.4,0.8c-4,0-8,0-12.1,0c-1.4,0-2.5,1-2.7,2.3c-0.2,1.4,0.7,2.7,2.1,3
		c0.4,0.1,0.8,0.1,1.3,0.1c0.4,0,0.6,0.1,0.7,0.6c1.6,10.1,3.3,20.3,4.9,30.4c0.9,5.5,4.9,8.9,10.4,8.9c13,0,26,0,38.9,0
		c5.6,0,9.6-3.4,10.4-8.9c1.6-9.9,3.2-19.8,4.8-29.7c0.2-1.3,0.2-1.3,1.5-1.3c0.2,0,0.5,0,0.7-0.1C110.2,63.3,111,62.1,110.8,60.7z
		 M101.2,64.7c-1.6,9.8-3.2,19.7-4.8,29.5c-0.4,2.5-2.2,4.1-4.7,4.1c-13.2,0-26.4,0-39.6,0c-2.5,0-4.3-1.6-4.7-4.1
		C46,85.3,44.5,76.4,43,67.6c-0.2-1-0.3-2-0.5-3c-0.1-0.6,0-0.7,0.6-0.7c4.7,0,9.4,0,14.1,0c4.9,0,9.8,0,14.7,0c9.5,0,19,0,28.5,0
		C101.2,63.8,101.3,63.9,101.2,64.7z"/>
            <path fill="#7D7D7D" d="M74.6,74c0-1.8-1.1-3-2.8-3c-1.6,0-2.7,1.2-2.7,3c0,4.7,0,9.3,0,14c0,1.7,1.1,2.9,2.7,3c1.6,0,2.7-1.2,2.7-2.9
		c0-2.3,0-4.6,0-7C74.6,78.7,74.6,76.4,74.6,74z"/>
            <path fill="#7D7D7D" d="M89.1,74.1c0-0.5,0-0.9-0.2-1.3c-0.5-1.3-1.7-1.9-3.1-1.7c-1.3,0.2-2.2,1.4-2.2,2.8c0,4.7,0,9.5,0,14.2
		c0,1.7,1.2,2.9,2.7,2.9c1.6,0,2.7-1.2,2.7-2.9c0-2.3,0-4.6,0-7C89.1,78.8,89.1,76.4,89.1,74.1z"/>
            <path fill="#7D7D7D" d="M57.3,71c-1.6,0-2.6,1.2-2.7,3c0,2.3,0,4.6,0,6.9s0,4.7,0,7c0,0.4,0,0.8,0.2,1.3c0.5,1.2,1.7,2,3,1.8
		c1.4-0.2,2.3-1.4,2.3-2.9c0-4.7,0-9.3,0-14C60.1,72.2,58.9,71,57.3,71z"/>
        </g>
    </symbol>

    <symbol id="button-arrow" viewBox="0 0 106.6 106.6">
        <g>
            <circle fill="#FFFFFF" cx="53.3" cy="53.3" r="53.3"/>
            <path d="M72.1,72.8c-1,0.7-2.1,0.8-3.3,0.8c-8.8,0-17.6,0-26.3,0c-2,0-3.7-1.3-4-3.1c-0.4-2.2,1.2-4.4,3.4-4.6
		c0.3,0,0.6,0,1,0c4,0,8,0,12,0c1,0,2.1,0,3.1,0s2,0.3,3,0.6c-0.1-0.1-0.3-0.3-0.4-0.4c-8.8-8.8-17.5-17.5-26.3-26.3
		c-0.9-0.9-1.5-1.8-1.4-3.1c0.1-1.6,0.8-2.8,2.2-3.4c1.5-0.7,2.9-0.4,4.2,0.6c0.2,0.2,0.5,0.4,0.7,0.7c8.7,8.7,17.4,17.4,26.1,26.1
		c0.1,0.1,0.3,0.3,0.4,0.4c0.1,0,0.1-0.1,0.1-0.1c-0.6-1.4-0.7-2.8-0.7-4.3c0-4.6,0-9.3,0-13.9c0-1.7,0.6-3,2.2-3.9
		c2.2-1.2,5.1,0.3,5.4,2.9c0,0.3,0.1,0.7,0.1,1.1c0,8.7,0,17.3,0,26c0,1.2-0.1,2.3-0.8,3.3C72.6,72.3,72.3,72.6,72.1,72.8z"/>
        </g>
    </symbol>

    <symbol id="car" viewBox="0 0 450 360.5">
        <path fill="#FF5C43" d="M295.8,70.3h44.5l86,92.7v89.8H450v37.5h-44.4c0,0.6,0,1.2,0,1.8c0,37.8-30.6,68.4-68.4,68.4
			s-68.4-30.6-68.4-68.4c0-0.6,0-1.2,0-1.8H180c0,0.6,0,1.2,0,1.8c0,37.8-30.6,68.4-68.4,68.4c-37.2,0-67.5-29.7-68.4-66.7
			c0-0.3,0-0.7,0-1.1v-0.6v-86.2h114v-22.4h-17.4H43.2H0v-22.4h43.2h96.6h41.4v-22.5h-41.4H43.2H25.8v-22.4h17.4h96.6H201V93.8
			h-61.2H43.2H0V71.4h43.2V37.2C43.2,16.7,59.9,0,80.4,0h178.2c20.5,0,37.2,16.7,37.2,37.2V60L295.8,70.3L295.8,70.3z M295.8,98.7
			V174H398l0,0l-70-75.3L295.8,98.7L295.8,98.7z M111.6,325.1c18.2,0,33-14.8,33-33s-14.8-33-33-33s-33,14.8-33,33
			C78.6,310.3,93.4,325.1,111.6,325.1L111.6,325.1z M337.2,325.1c18.2,0,33-14.8,33-33s-14.8-33-33-33s-33,14.8-33,33
			S319,325.1,337.2,325.1L337.2,325.1z"/>
    </symbol>

    <symbol id="cash" viewBox="0 0 576 512">
        <path fill="#ff5c43" d="M64 64C28.7 64 0 92.7 0 128V384c0 35.3 28.7 64 64 64H512c35.3 0 64-28.7 64-64V128c0-35.3-28.7-64-64-64H64zm64 320H64V320c35.3 0 64 28.7 64 64zM64 192V128h64c0 35.3-28.7 64-64 64zM448 384c0-35.3 28.7-64 64-64v64H448zm64-192c-35.3 0-64-28.7-64-64h64v64zM288 160a96 96 0 1 1 0 192 96 96 0 1 1 0-192z"/>
    </symbol>

    <symbol id="credit-card" viewBox="0 0 576 512">
        <path fill="#ff5c43" d="M64 32C28.7 32 0 60.7 0 96v32H576V96c0-35.3-28.7-64-64-64H64zM576 224H0V416c0 35.3 28.7 64 64 64H512c35.3 0 64-28.7 64-64V224zM112 352h64c8.8 0 16 7.2 16 16s-7.2 16-16 16H112c-8.8 0-16-7.2-16-16s7.2-16 16-16zm112 16c0-8.8 7.2-16 16-16H368c8.8 0 16 7.2 16 16s-7.2 16-16 16H240c-8.8 0-16-7.2-16-16z"/>
    </symbol>

    <symbol id="credit" viewBox="0 0 512 512">
        <path fill="#ff5c43" d="M501.6 92.1L267.2 2a32 32 0 0 0 -22.5 0L10.4 92.1A16 16 0 0 0 0 107.1V144c0 8.8 7.2 16 16 16h480c8.8 0 16-7.2 16-16v-36.9c0-6.7-4.1-12.6-10.4-15zM64 192v160H48c-8.8 0-16 7.2-16 16v48h448v-48c0-8.8-7.2-16-16-16h-16V192h-64v160h-96V192h-64v160h-96V192H64zm432 256H16c-8.8 0-16 7.2-16 16v32c0 8.8 7.2 16 16 16h480c8.8 0 16-7.2 16-16v-32c0-8.8-7.2-16-16-16z"/>
    </symbol>

    <symbol id="nova-post" viewBox="0 0 24 24">
        <path fill="#ff5c43" d="M11.9 2h.5l4 4c-.058.058-.082.082-.092.111-.008.022-.008.047-.008.089h-1.4c-.7 0-.9.2-.9.9v2.2c0 .5-.2.7-.7.7h-2.4c-.4 0-.6-.2-.6-.6V7c0-.6-.2-.8-.8-.8-.5 0-1 0-1.6-.1.36-.479.754-.886 1.142-1.286.26-.268.517-.533.758-.814.7-.6 1.4-1.3 2.1-2zM6 16.1c-1.4-1.3-2.7-2.6-4-4v-.3c.638-.638 1.3-1.276 1.974-1.926C4.674 9.2 5.387 8.513 6.1 7.8V16zM14.7 17.9c-.6 0-.8-.1-.8-.8v-2.4c0-.5-.2-.7-.7-.7h-2.3c-.5 0-.7.2-.7.7v2.4c0 .6-.2.8-.8.8H7.8c.2.3.3.4.4.5l3.3 3.3c.3.3.6.3 1 0l3.3-3.3c.05-.05.075-.1.1-.15s.05-.1.1-.15v-.2zM18.6 8.3c1 1.1 2 2.1 3.1 3.2.4.4.4.6 0 1-1 1.1-2 2.1-3.1 3.2l-.4.4V7.9z"/>
    </symbol>

    <symbol id="building" viewBox="0 0 384 512">
        <path fill="#ff5c43" d="M48 0C21.5 0 0 21.5 0 48V464c0 26.5 21.5 48 48 48h96V432c0-26.5 21.5-48 48-48s48 21.5 48 48v80h96c26.5 0 48-21.5 48-48V48c0-26.5-21.5-48-48-48H48zM64 240c0-8.8 7.2-16 16-16h32c8.8 0 16 7.2 16 16v32c0 8.8-7.2 16-16 16H80c-8.8 0-16-7.2-16-16V240zm112-16h32c8.8 0 16 7.2 16 16v32c0 8.8-7.2 16-16 16H176c-8.8 0-16-7.2-16-16V240c0-8.8 7.2-16 16-16zm80 16c0-8.8 7.2-16 16-16h32c8.8 0 16 7.2 16 16v32c0 8.8-7.2 16-16 16H272c-8.8 0-16-7.2-16-16V240zM80 96h32c8.8 0 16 7.2 16 16v32c0 8.8-7.2 16-16 16H80c-8.8 0-16-7.2-16-16V112c0-8.8 7.2-16 16-16zm80 16c0-8.8 7.2-16 16-16h32c8.8 0 16 7.2 16 16v32c0 8.8-7.2 16-16 16H176c-8.8 0-16-7.2-16-16V112zM272 96h32c8.8 0 16 7.2 16 16v32c0 8.8-7.2 16-16 16H272c-8.8 0-16-7.2-16-16V112c0-8.8 7.2-16 16-16z"/>
    </symbol>

    <symbol id="facebook" viewBox="0 0 447.1 447.2">
        <g>
            <path d="M217.1,447.1c2.2,0.1,4.3,0.1,6.5,0.1s4.3,0,6.5-0.1C225.7,447.1,221.4,447.1,217.1,447.1z"/>
            <path d="M223.6,0C100.1,0,0,100.1,0,223.6c0,111.1,81,203.3,187.2,220.6c0.1-0.8,0-1.6,0-2.4c0-54,0-108,0.1-161.9
		c0-3.8-1.4-4.8-5-4.8c-14.2,0.1-28.3,0-42.5,0.1c-3.6,0-5-1-5-4.8c0.2-17.2,0.2-34.3,0-51.5c0-3.9,1.5-4.8,5-4.8
		c14,0.1,28-0.1,42,0.1c4.1,0.1,5.4-1.3,5.4-5.4c0.1-16.3-0.2-32.6,0.6-48.9c2-39.3,32-69.2,71.5-69.9c16-0.3,32-0.7,47.9,0.8
		c3.5,0.3,5,1.1,4.9,4.9c-0.2,15.5-0.2,31,0,46.5c0.1,4.2-1.7,4.9-5.3,4.9c-12,0.2-24-0.8-35.9,0.8c-13.3,1.7-20.6,9.5-20.8,23
		c-0.2,12.3,0,24.7-0.2,37c-0.1,4,1.2,5.2,5.1,5.1c16.3-0.2,32.7,0,49-0.1c4,0,5,0.9,4.4,5.1c-2.4,16.4-4.4,33-6.4,49.5
		c-0.5,4.3-1.7,6.7-7,6.5c-14-0.4-28-0.1-42-0.2c-3.6,0-5,0.9-5,4.8c0.1,54.3,0.1,108.6,0.1,162.9c0,1.6-0.2,3.3,1,4.1
		c111.4-12.7,198-107.3,198-222.1C447.2,100.1,347.1,0,223.6,0z"/>
        </g>
    </symbol>

    <symbol id="instagram" viewBox="0 0 447.2 447.2">
        <g>
            <path  d="M223.7,180.5c-23.7-0.1-43.2,19.2-43.2,42.8c-0.1,23.7,19.2,43.2,42.8,43.2c23.7,0.1,43.2-19.2,43.2-42.8
		C266.6,200,247.4,180.6,223.7,180.5z"/>
            <path  d="M328,164c-1.6-22.2-14.6-38.1-36.2-43.4c-6.4-1.6-13-2.2-19.5-2.3c-32.4-0.5-64.9-0.5-97.3,0
		c-5.8,0.1-11.7,0.6-17.4,1.8c-19.7,4-32.3,15.4-37,35.2c-1.5,6.4-2.2,13-2.3,19.5c-0.2,24.7-0.2,49.4-0.2,74.1
		c0,11.4-0.3,22.8,1,34.2c2.1,18.7,9.8,33.5,28.2,41c8.4,3.4,17.3,4.5,26.2,4.7c16.6,0.3,33.3,0.1,50,0.1c4.8,0.2,9.6,0.3,14.4,0.2
		c15-0.2,30.1,0.2,45.1-0.9c22-1.6,38.2-14.8,43.5-36.3c1.6-6.4,2.2-13,2.3-19.5c0.2-24,0.2-47.9,0.2-71.9
		C328.9,188.2,328.9,176.1,328,164z M223.6,289.6c-35.4,0.5-66.4-29.8-66.3-66.3c0.1-35.8,30.7-66.4,66.3-65.9
		c36.9,0.6,65.9,29.1,65.9,66.1S260.5,289,223.6,289.6z M292,170c-8.5-0.1-15.1-7-15-15.7c0.1-8.5,6.9-15.2,15.5-15.1
		c8.5,0.1,15.2,6.9,15.2,15.4C307.8,163.4,300.8,170.1,292,170z"/>
            <path  d="M223.6,0C100.1,0,0,100.1,0,223.6s100.1,223.6,223.6,223.6s223.6-100.1,223.6-223.6S347.1,0,223.6,0z
		 M352.3,264.6c-0.1,11.2-0.6,22.5-3.4,33.5c-7.5,29.8-31.1,50.1-61.7,52.7c-35.3,3-70.7,1.6-106,1.4c-10.4,0-21-0.5-31.3-3.1
		c-29.4-7.4-46.7-26.2-52.7-55.7c-2-9.9-2.2-20.1-2.4-30.1c-0.4-26.8-0.4-53.5,0-80.3c0.2-11,0.5-22.2,3.2-33.1
		c7.3-29.5,26.1-46.8,55.6-52.8c10.9-2.2,22.1-2.3,33.1-2.5c12.1-0.3,24.3-0.1,36.4-0.1c18.8,0.1,37.7-0.4,56.5,0.8
		c26.6,1.8,48.8,11.4,62.5,35.7c6.1,10.9,8.7,22.9,9.4,35.3C353.3,199.1,352.6,231.9,352.3,264.6z"/>
        </g>
    </symbol>

    <symbol id="slider-arrow" viewBox="0 0 141.8 141.8">
        <circle cx="70.9" cy="70.9" r="70.9"/>
        <path fill="#FFFFFF" d="M98.1,71.5c-0.2,1.2-0.9,2.1-1.8,2.9C90.1,80.6,83.9,86.8,77.7,93c-1.4,1.4-3.5,1.7-5,0.6
	c-1.9-1.3-2.3-3.9-0.8-5.7c0.2-0.2,0.4-0.5,0.6-0.7c2.8-2.8,5.7-5.7,8.5-8.5c0.7-0.7,1.5-1.5,2.2-2.2s1.6-1.2,2.6-1.7
	c-0.2,0-0.4,0-0.5,0c-12.4,0-24.8,0-37.2,0c-1.2,0-2.4-0.3-3.2-1.2c-1.1-1.2-1.4-2.5-0.9-4c0.6-1.5,1.8-2.4,3.4-2.6c0.3,0,0.6,0,1,0
	c12.3,0,24.6,0,36.9,0c0.2,0,0.4,0,0.6,0c0-0.1,0-0.1-0.1-0.1c-1.4-0.6-2.5-1.5-3.5-2.5c-3.3-3.3-6.5-6.6-9.8-9.9
	c-1.2-1.2-1.7-2.6-1.2-4.3c0.7-2.4,3.8-3.4,5.9-1.8c0.3,0.2,0.5,0.5,0.8,0.7c6.1,6.1,12.3,12.3,18.4,18.4c0.8,0.8,1.6,1.7,1.8,2.9
	C98.1,70.8,98.1,71.1,98.1,71.5z"/>
    </symbol>

    <symbol id="category-apple" viewBox="0 0 16 20">
        <path d="M12.0934 0.404013L12.0723 0L11.6702 0.0432735C11.6308 0.0474859 7.74419 0.515835 7.47766 4.86118L7.45085 5.29621L7.88588 5.26673C7.93031 5.26366 12.3323 4.9125 12.0934 0.404013ZM11.3347 0.889212C11.2616 3.50783 9.2243 4.2362 8.28913 4.43266C8.64528 1.88795 10.4907 1.11247 11.3347 0.889212Z"/>
        <path d="M15.8394 14.3672L15.5947 14.2879C14.1138 13.8092 13.1193 12.4528 13.1193 10.9126C13.1193 9.54236 13.894 8.31692 15.1417 7.71416L15.5139 7.53455L15.3063 7.17726C15.2175 7.02408 14.3869 5.66728 12.6322 5.21808C11.2405 4.86194 9.6758 5.17711 7.97971 6.15516C7.26168 5.71936 4.87666 4.46328 2.97914 5.72243C2.60767 5.92769 -1.32945 8.28628 0.719725 14.6502C0.779848 14.7926 2.20864 18.14 3.89937 19.3938C4.35546 19.8296 5.52193 20.3741 6.85498 19.4654C7.0859 19.37 8.63111 18.7753 9.61146 19.4719C9.97335 19.7197 10.6052 20.0004 11.2727 20.0004C11.779 20.0004 12.3055 19.8392 12.7505 19.3796C12.9581 19.2 14.8541 17.5077 15.8394 14.8271L15.8681 14.749L15.8394 14.3672ZM12.2389 18.8086L12.2094 18.8366C11.3696 19.7185 10.0963 18.8749 10.0492 18.8435C9.54828 18.4873 8.96811 18.3713 8.42393 18.3713C7.4363 18.3713 6.56777 18.7539 6.51224 18.7788L6.44982 18.814C5.29369 19.6209 4.50213 18.9109 4.41827 18.8301L4.37308 18.7914C2.84395 17.6762 1.43852 14.3848 1.43661 14.3836C-0.48121 8.42185 3.19282 6.47186 3.34907 6.39259L3.39119 6.3677C5.17076 5.17289 7.72888 6.9023 7.75415 6.91953L7.95826 7.05969L8.16965 6.93217C9.76273 5.96905 11.2003 5.64162 12.4422 5.95986C13.454 6.21873 14.0989 6.85098 14.4144 7.23968C13.1327 8.02511 12.3538 9.39569 12.3538 10.9126C12.3538 12.6573 13.4011 14.2075 14.9969 14.8818C14.0146 17.2795 12.2577 18.7929 12.2389 18.8086Z"/>
    </symbol>

    <symbol id="category-airpods" viewBox="0 0 15 21">
        <path fill-rule="evenodd" clip-rule="evenodd" d="M3.40801 11.976C3.48001 12.072 3.57601 12.12 3.67201 12.12C3.72001 12.12 3.79201 12.096 3.84001 12.072C3.92186 12.0311 3.97269 11.9514 3.9837 11.8638C4.24475 11.9428 4.53259 12 4.8 12C5.01599 12 5.20799 11.976 5.37599 11.856C6.02399 11.496 6.21599 10.992 5.92799 10.368C5.92119 10.3612 5.81309 10.1362 5.65639 9.81009C5.26299 8.99159 4.56362 7.53627 4.392 7.296C4.008 6.768 3.432 7.008 3.048 7.224C2.69491 7.43978 2.46607 7.78379 2.3189 8.11849C2.03271 7.26215 1.82401 6.3647 1.82401 5.568C1.82401 3.168 3.79201 0.576 7.03199 0.576C10.272 0.576 12.264 3.168 12.264 5.568C12.264 6.38046 12.0511 7.29329 11.7604 8.16029C11.6139 7.81619 11.3816 7.46122 11.016 7.24799C10.632 7.00799 10.08 6.76799 9.67199 7.31999C9.50039 7.56026 8.80109 9.01549 8.40769 9.83399C8.25099 10.1601 8.14289 10.3852 8.13599 10.392C7.84799 11.016 8.03999 11.52 8.68799 11.88C8.85599 11.976 9.04799 12 9.26399 12C9.53209 12 9.83109 11.938 10.1041 11.854C10.1144 11.9383 10.1655 12.017 10.248 12.072C10.392 12.168 10.56 12.12 10.656 11.976C10.6767 11.9449 10.7914 11.7551 10.9584 11.4495C10.9697 11.4328 10.9791 11.4153 10.9869 11.3972C11.6049 10.258 12.864 7.66739 12.864 5.592C12.864 2.904 10.632 0 7.03199 0C3.43201 0 1.20001 2.904 1.20001 5.592C1.20001 8.27999 3.31201 11.832 3.40801 11.976ZM10.4958 11.0524C10.7409 10.5917 11.0818 9.90789 11.399 9.13009C11.3871 9.00459 11.269 8.09099 10.704 7.75199C10.272 7.48799 10.2 7.58399 10.128 7.67999C9.99839 7.87439 9.13019 9.70149 8.78289 10.4325C8.74429 10.5137 8.71199 10.5816 8.68799 10.632C8.54399 10.92 8.56799 11.112 8.97599 11.352C9.28139 11.5164 10.2306 11.244 10.4958 11.0524ZM2.67031 9.06619C2.69929 8.84689 2.84134 8.01849 3.36 7.72799C3.816 7.488 3.888 7.584 3.936 7.65599C4.104 7.87199 5.15999 10.104 5.39999 10.632C5.54399 10.944 5.54399 11.136 5.11199 11.352C4.81233 11.5364 3.87057 11.2559 3.60522 11.0633C3.35449 10.5898 2.99833 9.87599 2.67031 9.06619Z"/>
        <path d="M12.096 20.6401C12 20.6401 11.904 20.5681 11.904 20.4481V14.9281C11.904 14.8321 11.976 14.7361 12.096 14.7361C12.216 14.7361 12.288 14.8081 12.288 14.9281V20.4481C12.288 20.5441 12.192 20.6401 12.096 20.6401Z"/>
        <path d="M1.96799 20.6401C1.87199 20.6401 1.776 20.5681 1.776 20.4481V14.9281C1.776 14.8321 1.84799 14.7361 1.96799 14.7361C2.08799 14.7361 2.15999 14.8081 2.15999 14.9281V20.4481C2.15999 20.5441 2.06399 20.6401 1.96799 20.6401Z"/>
        <path d="M9 18V17.5H7H5V18H7H9Z"/>
        <path d="M12.096 20.76H2.112C0.816 20.76 0 19.728 0 19.008V16.368C0 15.672 0.84 14.616 2.112 14.616H12.096C13.464 14.616 14.04 15.696 14.04 16.128V19.248C14.064 19.68 13.464 20.76 12.096 20.76ZM2.112 15.216C1.2 15.216 0.6 15.96 0.6 16.368V19.008C0.6 19.392 1.176 20.16 2.112 20.16H12.096C13.152 20.16 13.44 19.368 13.44 19.248V16.128C13.44 16.008 13.104 15.216 12.096 15.216H2.112Z"/>
    </symbol>

    <symbol id="category-accessories" viewBox="0 0 20 20">
        <path fill-rule="evenodd" clip-rule="evenodd" d="M0.3125 9.81855C0.3125 6.63957 2.88957 4.0625 6.06855 4.0625H13.9315C17.1104 4.0625 19.6875 6.63957 19.6875 9.81855V11.3514C19.6875 13.6838 17.7967 15.5746 15.4643 15.5746C14.5918 15.5746 13.7651 15.1844 13.2105 14.511L12.6378 13.8156C12.2146 13.3017 11.5838 13.004 10.9181 13.004H9.08188C8.41619 13.004 7.78538 13.3017 7.3622 13.8156L6.78952 14.511C6.23491 15.1844 5.40818 15.5746 4.53574 15.5746C2.20331 15.5746 0.3125 13.6838 0.3125 11.3514V9.81855ZM6.06855 4.6875C3.23475 4.6875 0.9375 6.98475 0.9375 9.81855V11.3514C0.9375 13.3386 2.54849 14.9496 4.53574 14.9496C5.22142 14.9496 5.87117 14.643 6.30706 14.1137L6.87974 13.4183C7.42165 12.7602 8.22943 12.379 9.08188 12.379H10.9181C11.7706 12.379 12.5784 12.7602 13.1203 13.4183L13.6929 14.1137C14.1288 14.643 14.7786 14.9496 15.4643 14.9496C17.4515 14.9496 19.0625 13.3386 19.0625 11.3514V9.81855C19.0625 6.98475 16.7653 4.6875 13.9315 4.6875H6.06855ZM15.1411 7.71169C14.9797 7.71169 14.8488 7.84258 14.8488 8.00403C14.8488 8.16549 14.9797 8.29637 15.1411 8.29637C15.3026 8.29637 15.4335 8.16549 15.4335 8.00403C15.4335 7.84258 15.3026 7.71169 15.1411 7.71169ZM14.2238 8.00403C14.2238 7.4974 14.6345 7.08669 15.1411 7.08669C15.6478 7.08669 16.0585 7.4974 16.0585 8.00403C16.0585 8.51066 15.6478 8.92137 15.1411 8.92137C14.6345 8.92137 14.2238 8.51066 14.2238 8.00403ZM4.85887 7.38911C5.03146 7.38911 5.17137 7.52902 5.17137 7.70161V9.50605H6.97581C7.1484 9.50605 7.28831 9.64596 7.28831 9.81855C7.28831 9.99114 7.1484 10.131 6.97581 10.131H5.17137V11.9355C5.17137 12.1081 5.03146 12.248 4.85887 12.248C4.68628 12.248 4.54637 12.1081 4.54637 11.9355V10.131H2.74194C2.56935 10.131 2.42944 9.99114 2.42944 9.81855C2.42944 9.64596 2.56935 9.50605 2.74194 9.50605H4.54637V7.70161C4.54637 7.52902 4.68628 7.38911 4.85887 7.38911ZM13.3266 9.52621C13.1652 9.52621 13.0343 9.65709 13.0343 9.81855C13.0343 9.98 13.1652 10.1109 13.3266 10.1109C13.4881 10.1109 13.619 9.98 13.619 9.81855C13.619 9.65709 13.4881 9.52621 13.3266 9.52621ZM12.4093 9.81855C12.4093 9.31192 12.82 8.90121 13.3266 8.90121C13.8332 8.90121 14.244 9.31192 14.244 9.81855C14.244 10.3252 13.8332 10.7359 13.3266 10.7359C12.82 10.7359 12.4093 10.3252 12.4093 9.81855ZM16.9556 9.52621C16.7942 9.52621 16.6633 9.65709 16.6633 9.81855C16.6633 9.98 16.7942 10.1109 16.9556 10.1109C17.1171 10.1109 17.248 9.98 17.248 9.81855C17.248 9.65709 17.1171 9.52621 16.9556 9.52621ZM16.0383 9.81855C16.0383 9.31192 16.449 8.90121 16.9556 8.90121C17.4623 8.90121 17.873 9.31192 17.873 9.81855C17.873 10.3252 17.4623 10.7359 16.9556 10.7359C16.449 10.7359 16.0383 10.3252 16.0383 9.81855ZM15.1411 11.3407C14.9797 11.3407 14.8488 11.4716 14.8488 11.6331C14.8488 11.7945 14.9797 11.9254 15.1411 11.9254C15.3026 11.9254 15.4335 11.7945 15.4335 11.6331C15.4335 11.4716 15.3026 11.3407 15.1411 11.3407ZM14.2238 11.6331C14.2238 11.1264 14.6345 10.7157 15.1411 10.7157C15.6478 10.7157 16.0585 11.1264 16.0585 11.6331C16.0585 12.1397 15.6478 12.5504 15.1411 12.5504C14.6345 12.5504 14.2238 12.1397 14.2238 11.6331Z"/>
    </symbol>

    <symbol id="category-phone" viewBox="0 0 20 20">
        <path fill-rule="evenodd" clip-rule="evenodd" d="M4.0625 2.1875C4.0625 0.979377 5.04188 0 6.25 0H13.75C14.9581 0 15.9375 0.979377 15.9375 2.1875V17.8125C15.9375 19.0206 14.9581 20 13.75 20H6.25C5.04188 20 4.0625 19.0206 4.0625 17.8125V2.1875ZM6.25 0.625C5.38706 0.625 4.6875 1.32456 4.6875 2.1875V2.8125H15.3125V2.1875C15.3125 1.32456 14.6129 0.625 13.75 0.625H6.25ZM15.3125 3.4375H4.6875V16.5625H15.3125V3.4375ZM15.3125 17.1875H4.6875V17.8125C4.6875 18.6754 5.38706 19.375 6.25 19.375H13.75C14.6129 19.375 15.3125 18.6754 15.3125 17.8125V17.1875ZM8.75 1.875C8.75 1.70241 8.88991 1.5625 9.0625 1.5625H10.9375C11.1101 1.5625 11.25 1.70241 11.25 1.875C11.25 2.04759 11.1101 2.1875 10.9375 2.1875H9.0625C8.88991 2.1875 8.75 2.04759 8.75 1.875ZM9.375 18.125C9.375 17.9524 9.51491 17.8125 9.6875 17.8125H10.3125C10.4851 17.8125 10.625 17.9524 10.625 18.125C10.625 18.2976 10.4851 18.4375 10.3125 18.4375H9.6875C9.51491 18.4375 9.375 18.2976 9.375 18.125Z"/>
    </symbol>

    <symbol id="category-tablet" viewBox="0 0 24 24" fill="none">
        <path d="M12 18H12.01M8.2 21H15.8C16.9201 21 17.4802 21 17.908 20.782C18.2843 20.5903 18.5903 20.2843 18.782 19.908C19 19.4802 19 18.9201 19 17.8V6.2C19 5.0799 19 4.51984 18.782 4.09202C18.5903 3.71569 18.2843 3.40973 17.908 3.21799C17.4802 3 16.9201 3 15.8 3H8.2C7.0799 3 6.51984 3 6.09202 3.21799C5.71569 3.40973 5.40973 3.71569 5.21799 4.09202C5 4.51984 5 5.07989 5 6.2V17.8C5 18.9201 5 19.4802 5.21799 19.908C5.40973 20.2843 5.71569 20.5903 6.09202 20.782C6.51984 21 7.07989 21 8.2 21Z" stroke="#000000" stroke-width="2" stroke-linecap="round" stroke-linejoin="round"/>
     </symbol>

    <symbol id="category-watch" viewBox="0 0 20 20">
        <path fill-rule="evenodd" clip-rule="evenodd" d="M8.0472 0.625C7.89057 0.625 7.75814 0.740947 7.73744 0.896199L7.23193 4.6875H12.7681L12.2626 0.896199C12.2419 0.740947 12.1094 0.625 11.9528 0.625H8.0472ZM13.3986 4.6875L12.8821 0.813597C12.82 0.347841 12.4227 0 11.9528 0H8.0472C7.57732 0 7.18002 0.34784 7.11792 0.813596L6.6014 4.6875H6.25C5.38706 4.6875 4.6875 5.38706 4.6875 6.25V13.75C4.6875 14.6129 5.38706 15.3125 6.25 15.3125H6.6014L7.11792 19.1864C7.18002 19.6522 7.57732 20 8.0472 20H11.9528C12.4227 20 12.82 19.6522 12.8821 19.1864L13.3986 15.3125H13.75C14.6129 15.3125 15.3125 14.6129 15.3125 13.75V13.4375C15.8303 13.4375 16.25 13.0178 16.25 12.5V10.625C16.25 10.1072 15.8303 9.6875 15.3125 9.6875V8.39812C15.8516 8.25936 16.25 7.76995 16.25 7.1875C16.25 6.59612 15.8393 6.10067 15.2876 5.97075C15.156 5.24105 14.5176 4.6875 13.75 4.6875H13.3986ZM15.3125 6.64611V7.72889C15.4993 7.62082 15.625 7.41884 15.625 7.1875C15.625 6.95616 15.4993 6.75418 15.3125 6.64611ZM15.3125 10.3125V12.8125C15.4851 12.8125 15.625 12.6726 15.625 12.5V10.625C15.625 10.4524 15.4851 10.3125 15.3125 10.3125ZM12.7681 15.3125H7.23193L7.73744 19.1038C7.75814 19.2591 7.89057 19.375 8.0472 19.375H11.9528C12.1094 19.375 12.2419 19.2591 12.2626 19.1038L12.7681 15.3125ZM6.25 5.3125C5.73223 5.3125 5.3125 5.73223 5.3125 6.25V13.75C5.3125 14.2678 5.73223 14.6875 6.25 14.6875H13.75C14.2678 14.6875 14.6875 14.2678 14.6875 13.75V6.25C14.6875 5.73223 14.2678 5.3125 13.75 5.3125H6.25Z"/>
    </symbol>

    <symbol id="category-macbook" viewBox="0 0 463 463">
        <g>
            <path d="M455.5,348H447V99.5c0-17.369-14.131-31.5-31.5-31.5h-368C30.131,68,16,82.131,16,99.5V348H7.5     c-4.142,0-7.5,3.358-7.5,7.5v16C0,384.458,10.542,395,23.5,395h416c12.958,0,23.5-10.542,23.5-23.5v-16     C463,351.358,459.642,348,455.5,348z M31,99.5C31,90.402,38.402,83,47.5,83h368c9.098,0,16.5,7.402,16.5,16.5V348H31V99.5z      M448,371.5c0,4.687-3.813,8.5-8.5,8.5h-416c-4.687,0-8.5-3.813-8.5-8.5V363h169.025c-0.011,0.166-0.025,0.331-0.025,0.5     c0,4.142,3.358,7.5,7.5,7.5h80c4.142,0,7.5-3.358,7.5-7.5c0-0.169-0.014-0.334-0.025-0.5H448V371.5z"/>
            <path d="M407.5,100h-352c-4.142,0-7.5,3.358-7.5,7.5v216c0,4.142,3.358,7.5,7.5,7.5h352c4.142,0,7.5-3.358,7.5-7.5v-216     C415,103.358,411.642,100,407.5,100z M400,316H63V115h337V316z"/>
        </g>
    </symbol>

    <!-- Добавьте больше символов по мере необходимости -->
</svg>
