<?xml version="1.0" encoding="utf-8"?>
<!-- Generator: Adobe Illustrator 22.1.0, SVG Export Plug-In . SVG Version: 6.00 Build 0)  -->
<svg version="1.1" id="Слой_1" xmlns="http://www.w3.org/2000/svg" xmlns:xlink="http://www.w3.org/1999/xlink" x="0px" y="0px"
	 viewBox="0 0 74.6 87.2" style="enable-background:new 0 0 74.6 87.2;" xml:space="preserve">
<style type="text/css">
	.st0{fill:#0EBFDE;}
	.st1{fill:#FFFFFF;}
	.st2{font-family:'Montserrat-Bold';}
	.st3{font-size:10.1434px;}
	.st4{font-size:7.9987px;}
	.st5{font-size:28.4309px;}
</style>
<path class="st0" d="M74.4,47.4c-0.8,9.6-4.5,17.9-11.2,24.8c-7,7.2-15.5,12-25,14.8c-0.5,0.2-1,0.2-1.5,0.1
	c-11.8-3.6-22.1-9.7-29.4-20C2.5,60.5,0.2,53,0.1,44.9C0,34.7,0.1,24.5,0,14.2c0-0.5,0.1-0.8,0.7-1c12-4.4,24.1-8.7,36.1-13.1
	c0.4-0.2,0.8-0.1,1.2,0c12,4.4,23.9,8.7,35.9,13c0.6,0.2,0.8,0.5,0.7,1.1C74.6,17.6,74.7,44.2,74.4,47.4z"/>
<text transform="matrix(1.04 0 0 1 13.6001 25.3168)" class="st1 st2 st3">Гарантія</text>
<text transform="matrix(1.04 0 0 1 18.6113 64.0477)" class="st1 st2 st3">місяця</text>
<text transform="matrix(1.04 0 0 1 8.6797 44.475)" class="st1 st2 st4">до</text>
<text transform="matrix(1.04 0 0 1 18.9404 52.0917)" class="st1 st2 st5">24</text>
</svg>
