<?xml version="1.0" encoding="utf-8"?>
<!-- Generator: Adobe Illustrator 22.1.0, SVG Export Plug-In . SVG Version: 6.00 Build 0)  -->
<svg version="1.1" id="Слой_1" xmlns="http://www.w3.org/2000/svg" xmlns:xlink="http://www.w3.org/1999/xlink" x="0px" y="0px"
	 viewBox="0 0 141.8 141.8" style="enable-background:new 0 0 141.8 141.8;" xml:space="preserve">
<style type="text/css">
	.st0{fill:#AAAFCA;}
	.st1{fill:#FFFFFF;}
</style>
<circle class="st0" cx="70.9" cy="70.9" r="70.9"/>
<path class="st1" d="M98.1,71.5c-0.2,1.2-0.9,2.1-1.8,2.9C90.1,80.6,83.9,86.8,77.7,93c-1.4,1.4-3.5,1.7-5,0.6
	c-1.9-1.3-2.3-3.9-0.8-5.7c0.2-0.2,0.4-0.5,0.6-0.7c2.8-2.8,5.7-5.7,8.5-8.5c0.7-0.7,1.5-1.5,2.2-2.2s1.6-1.2,2.6-1.7
	c-0.2,0-0.4,0-0.5,0c-12.4,0-24.8,0-37.2,0c-1.2,0-2.4-0.3-3.2-1.2c-1.1-1.2-1.4-2.5-0.9-4c0.6-1.5,1.8-2.4,3.4-2.6c0.3,0,0.6,0,1,0
	c12.3,0,24.6,0,36.9,0c0.2,0,0.4,0,0.6,0c0-0.1,0-0.1-0.1-0.1c-1.4-0.6-2.5-1.5-3.5-2.5c-3.3-3.3-6.5-6.6-9.8-9.9
	c-1.2-1.2-1.7-2.6-1.2-4.3c0.7-2.4,3.8-3.4,5.9-1.8c0.3,0.2,0.5,0.5,0.8,0.7c6.1,6.1,12.3,12.3,18.4,18.4c0.8,0.8,1.6,1.7,1.8,2.9
	C98.1,70.8,98.1,71.1,98.1,71.5z"/>
</svg>
