<?xml version="1.0" encoding="utf-8"?>
<!-- Generator: Adobe Illustrator 22.1.0, SVG Export Plug-In . SVG Version: 6.00 Build 0)  -->
<svg version="1.1" id="Слой_1" xmlns="http://www.w3.org/2000/svg" xmlns:xlink="http://www.w3.org/1999/xlink" x="0px" y="0px"
	 viewBox="0 0 106.6 106.6" style="enable-background:new 0 0 106.6 106.6;" xml:space="preserve">
<style type="text/css">
	.st0{fill:#FFFFFF;}
	.st1{fill:#B4CA16;}
</style>
<g>
	<circle class="st0" cx="53.3" cy="53.3" r="53.3"/>
	<path class="st1" d="M72.1,72.8c-1,0.7-2.1,0.8-3.3,0.8c-8.8,0-17.6,0-26.3,0c-2,0-3.7-1.3-4-3.1c-0.4-2.2,1.2-4.4,3.4-4.6
		c0.3,0,0.6,0,1,0c4,0,8,0,12,0c1,0,2.1,0,3.1,0s2,0.3,3,0.6c-0.1-0.1-0.3-0.3-0.4-0.4c-8.8-8.8-17.5-17.5-26.3-26.3
		c-0.9-0.9-1.5-1.8-1.4-3.1c0.1-1.6,0.8-2.8,2.2-3.4c1.5-0.7,2.9-0.4,4.2,0.6c0.2,0.2,0.5,0.4,0.7,0.7c8.7,8.7,17.4,17.4,26.1,26.1
		c0.1,0.1,0.3,0.3,0.4,0.4c0.1,0,0.1-0.1,0.1-0.1c-0.6-1.4-0.7-2.8-0.7-4.3c0-4.6,0-9.3,0-13.9c0-1.7,0.6-3,2.2-3.9
		c2.2-1.2,5.1,0.3,5.4,2.9c0,0.3,0.1,0.7,0.1,1.1c0,8.7,0,17.3,0,26c0,1.2-0.1,2.3-0.8,3.3C72.6,72.3,72.3,72.6,72.1,72.8z"/>
</g>
</svg>
