<?xml version="1.0" encoding="utf-8"?>
<!-- Generator: Adobe Illustrator 22.1.0, SVG Export Plug-In . SVG Version: 6.00 Build 0)  -->
<svg version="1.1" id="Слой_1" xmlns="http://www.w3.org/2000/svg" xmlns:xlink="http://www.w3.org/1999/xlink" x="0px" y="0px"
	 viewBox="0 0 143.8 143.8" style="enable-background:new 0 0 143.8 143.8;" xml:space="preserve">
<style type="text/css">
	.st0{fill:#EAEAEE;}
	.st1{fill:#7D7D7D;}
</style>
<circle class="st0" cx="71.9" cy="71.9" r="71.9"/>
<g>
	<path class="st1" d="M110.8,60.7c-0.1-1.3-1.3-2.3-2.7-2.3c-4.1,0-8.1,0-12.2,0c-0.6,0-0.9-0.1-1.2-0.7c-0.8-1.5-1.8-3-2.6-4.4
		c-2.3-3.8-4.6-7.7-6.9-11.5c-0.6-1.1-1.5-1.7-2.8-1.5c-2.1,0.2-3,2.4-1.9,4.2c2.6,4.3,5.2,8.7,7.8,13c0.1,0.2,0.4,0.5,0.3,0.8
		c-11.2,0-22.4,0-33.7,0c0.7-1.2,1.4-2.3,2-3.4c2.1-3.5,4.2-7,6.3-10.5c0.9-1.6,0.4-3.3-1.1-4c-1.4-0.6-2.7-0.1-3.6,1.3
		C55.3,47,52.2,52.2,49,57.5c-0.3,0.6-0.7,0.8-1.4,0.8c-4,0-8,0-12.1,0c-1.4,0-2.5,1-2.7,2.3c-0.2,1.4,0.7,2.7,2.1,3
		c0.4,0.1,0.8,0.1,1.3,0.1c0.4,0,0.6,0.1,0.7,0.6c1.6,10.1,3.3,20.3,4.9,30.4c0.9,5.5,4.9,8.9,10.4,8.9c13,0,26,0,38.9,0
		c5.6,0,9.6-3.4,10.4-8.9c1.6-9.9,3.2-19.8,4.8-29.7c0.2-1.3,0.2-1.3,1.5-1.3c0.2,0,0.5,0,0.7-0.1C110.2,63.3,111,62.1,110.8,60.7z
		 M101.2,64.7c-1.6,9.8-3.2,19.7-4.8,29.5c-0.4,2.5-2.2,4.1-4.7,4.1c-13.2,0-26.4,0-39.6,0c-2.5,0-4.3-1.6-4.7-4.1
		C46,85.3,44.5,76.4,43,67.6c-0.2-1-0.3-2-0.5-3c-0.1-0.6,0-0.7,0.6-0.7c4.7,0,9.4,0,14.1,0c4.9,0,9.8,0,14.7,0c9.5,0,19,0,28.5,0
		C101.2,63.8,101.3,63.9,101.2,64.7z"/>
	<path class="st1" d="M74.6,74c0-1.8-1.1-3-2.8-3c-1.6,0-2.7,1.2-2.7,3c0,4.7,0,9.3,0,14c0,1.7,1.1,2.9,2.7,3c1.6,0,2.7-1.2,2.7-2.9
		c0-2.3,0-4.6,0-7C74.6,78.7,74.6,76.4,74.6,74z"/>
	<path class="st1" d="M89.1,74.1c0-0.5,0-0.9-0.2-1.3c-0.5-1.3-1.7-1.9-3.1-1.7c-1.3,0.2-2.2,1.4-2.2,2.8c0,4.7,0,9.5,0,14.2
		c0,1.7,1.2,2.9,2.7,2.9c1.6,0,2.7-1.2,2.7-2.9c0-2.3,0-4.6,0-7C89.1,78.8,89.1,76.4,89.1,74.1z"/>
	<path class="st1" d="M57.3,71c-1.6,0-2.6,1.2-2.7,3c0,2.3,0,4.6,0,6.9s0,4.7,0,7c0,0.4,0,0.8,0.2,1.3c0.5,1.2,1.7,2,3,1.8
		c1.4-0.2,2.3-1.4,2.3-2.9c0-4.7,0-9.3,0-14C60.1,72.2,58.9,71,57.3,71z"/>
</g>
</svg>
