<?xml version="1.0" encoding="utf-8"?>
<!-- Generator: Adobe Illustrator 22.1.0, SVG Export Plug-In . SVG Version: 6.00 Build 0)  -->
<svg version="1.1" id="Слой_1" xmlns="http://www.w3.org/2000/svg" xmlns:xlink="http://www.w3.org/1999/xlink" x="0px" y="0px"
	 viewBox="0 0 450 360.5" style="enable-background:new 0 0 450 360.5;" xml:space="preserve">
<style type="text/css">
	.st0{fill:#FF5C43;}
</style>
<g>
	<g>
		<path class="st0" d="M295.8,70.3h44.5l86,92.7v89.8H450v37.5h-44.4c0,0.6,0,1.2,0,1.8c0,37.8-30.6,68.4-68.4,68.4
			s-68.4-30.6-68.4-68.4c0-0.6,0-1.2,0-1.8H180c0,0.6,0,1.2,0,1.8c0,37.8-30.6,68.4-68.4,68.4c-37.2,0-67.5-29.7-68.4-66.7
			c0-0.3,0-0.7,0-1.1v-0.6v-86.2h114v-22.4h-17.4H43.2H0v-22.4h43.2h96.6h41.4v-22.5h-41.4H43.2H25.8v-22.4h17.4h96.6H201V93.8
			h-61.2H43.2H0V71.4h43.2V37.2C43.2,16.7,59.9,0,80.4,0h178.2c20.5,0,37.2,16.7,37.2,37.2V60L295.8,70.3L295.8,70.3z M295.8,98.7
			V174H398l0,0l-70-75.3L295.8,98.7L295.8,98.7z M111.6,325.1c18.2,0,33-14.8,33-33s-14.8-33-33-33s-33,14.8-33,33
			C78.6,310.3,93.4,325.1,111.6,325.1L111.6,325.1z M337.2,325.1c18.2,0,33-14.8,33-33s-14.8-33-33-33s-33,14.8-33,33
			S319,325.1,337.2,325.1L337.2,325.1z"/>
	</g>
</g>
</svg>
