<svg version="1.1" width="16" height="20" viewBox="0 0 24 24"  xmlns="http://www.w3.org/2000/svg" fill="#ff5c43">
<g>
<path d="M11.9 2h.5l4 4c-.058.058-.082.082-.092.111-.008.022-.008.047-.008.089h-1.4c-.7 0-.9.2-.9.9v2.2c0 .5-.2.7-.7.7h-2.4c-.4 0-.6-.2-.6-.6V7c0-.6-.2-.8-.8-.8-.5 0-1 0-1.6-.1.36-.479.754-.886 1.142-1.286.26-.268.517-.533.758-.814.7-.6 1.4-1.3 2.1-2zM6 16.1c-1.4-1.3-2.7-2.6-4-4v-.3c.638-.638 1.3-1.276 1.974-1.926C4.674 9.2 5.387 8.513 6.1 7.8V16zM14.7 17.9c-.6 0-.8-.1-.8-.8v-2.4c0-.5-.2-.7-.7-.7h-2.3c-.5 0-.7.2-.7.7v2.4c0 .6-.2.8-.8.8H7.8c.2.3.3.4.4.5l3.3 3.3c.3.3.6.3 1 0l3.3-3.3c.05-.05.075-.1.1-.15s.05-.1.1-.15v-.2zM18.6 8.3c1 1.1 2 2.1 3.1 3.2.4.4.4.6 0 1-1 1.1-2 2.1-3.1 3.2l-.4.4V7.9z"/>
</g>
</svg>