<?xml version="1.0" encoding="utf-8"?>
<!-- Generator: Adobe Illustrator 22.1.0, SVG Export Plug-In . SVG Version: 6.00 Build 0)  -->
<svg version="1.1" id="Слой_1" xmlns="http://www.w3.org/2000/svg" xmlns:xlink="http://www.w3.org/1999/xlink" x="0px" y="0px"
	 viewBox="0 0 447.1 447.2" style="enable-background:new 0 0 447.1 447.2;" xml:space="preserve">
<style type="text/css">
	.st0{fill:#C1C1C1;}
</style>
<g>
	<path class="st0" d="M217.1,447.1c2.2,0.1,4.3,0.1,6.5,0.1s4.3,0,6.5-0.1C225.7,447.1,221.4,447.1,217.1,447.1z"/>
	<path class="st0" d="M223.6,0C100.1,0,0,100.1,0,223.6c0,111.1,81,203.3,187.2,220.6c0.1-0.8,0-1.6,0-2.4c0-54,0-108,0.1-161.9
		c0-3.8-1.4-4.8-5-4.8c-14.2,0.1-28.3,0-42.5,0.1c-3.6,0-5-1-5-4.8c0.2-17.2,0.2-34.3,0-51.5c0-3.9,1.5-4.8,5-4.8
		c14,0.1,28-0.1,42,0.1c4.1,0.1,5.4-1.3,5.4-5.4c0.1-16.3-0.2-32.6,0.6-48.9c2-39.3,32-69.2,71.5-69.9c16-0.3,32-0.7,47.9,0.8
		c3.5,0.3,5,1.1,4.9,4.9c-0.2,15.5-0.2,31,0,46.5c0.1,4.2-1.7,4.9-5.3,4.9c-12,0.2-24-0.8-35.9,0.8c-13.3,1.7-20.6,9.5-20.8,23
		c-0.2,12.3,0,24.7-0.2,37c-0.1,4,1.2,5.2,5.1,5.1c16.3-0.2,32.7,0,49-0.1c4,0,5,0.9,4.4,5.1c-2.4,16.4-4.4,33-6.4,49.5
		c-0.5,4.3-1.7,6.7-7,6.5c-14-0.4-28-0.1-42-0.2c-3.6,0-5,0.9-5,4.8c0.1,54.3,0.1,108.6,0.1,162.9c0,1.6-0.2,3.3,1,4.1
		c111.4-12.7,198-107.3,198-222.1C447.2,100.1,347.1,0,223.6,0z"/>
</g>
</svg>
