<?xml version="1.0" encoding="utf-8"?>
<!-- Generator: Adobe Illustrator 22.1.0, SVG Export Plug-In . SVG Version: 6.00 Build 0)  -->
<svg version="1.1" id="Слой_1" xmlns="http://www.w3.org/2000/svg" xmlns:xlink="http://www.w3.org/1999/xlink" x="0px" y="0px"
	 viewBox="0 0 87.3 109" style="enable-background:new 0 0 87.3 109;" xml:space="preserve">
<style type="text/css">
	.st0{fill:#FF4132;}
	.st1{fill:#2A2A2A;}
	.st2{fill:#7C7C7C;}
	.st3{fill:#4F4F4F;}
	.st4{fill:#FFFFFF;}
</style>
<path class="st0" d="M39.4,109c-1.3-0.6-2.7-0.5-4.1-0.8C17.5,104.8,3.5,90.5,0.6,72.6C-1.3,60.8,1.1,50,8,40.2
	c2.4-3.5,5-7,7.5-10.5c0.4-0.6,0.7-0.6,1.1-0.1c1.8,1.9,3.7,3.7,5.5,5.5c1.6,1.6,3.5,2.2,5.6,1.3c2.1-0.9,3.1-2.6,3.1-4.9
	c0-4.5,0.6-8.9,2.3-13.1c3.4-8,9.1-13.8,17-17.5c0.8-0.4,1.7-1.2,2.3-0.8c0.5,0.3,0.5,1.5,0.8,2.3c1.6,5.8,4.4,11.2,7.5,16.4
	c4.5,7.5,9.9,14.3,15.7,20.9c4.8,5.4,8.3,11.6,9.9,18.7c1.7,7.2,1,14.4-1.6,21.2c-5.9,15.9-17.3,25.5-34,28.8
	c-1.2,0.2-2.4,0.1-3.6,0.6c-0.6,0-1.1,0-1.7,0c-0.4-0.2-0.7-0.2-1.1,0c-1,0-2,0-3,0c-0.1-0.1-0.3-0.1-0.5-0.1s-0.4-0.1-0.6,0.1
	C40.1,109,39.8,109,39.4,109z"/>
<path class="st1" d="M44.5,109c0.4-0.3,0.7-0.3,1.1,0C45.2,109,44.9,109,44.5,109z"/>
<path class="st2" d="M40.5,109c0.1-0.4,0.4-0.2,0.6-0.2c0.1,0,0.1,0.1,0.1,0.1s0,0.1-0.1,0.1C40.9,109,40.7,109,40.5,109z"/>
<path class="st3" d="M41.1,109c0-0.1,0-0.1,0-0.2c0.2,0,0.4,0,0.4,0.2C41.4,109,41.2,109,41.1,109z"/>
<g>
	<path class="st4" d="M30.1,83.6c2.6-3.8,5.1-7.4,7.6-11.1c4-5.8,8-11.6,11.9-17.5c0.4-0.6,0.9-0.9,1.6-0.8c1.9,0.1,3.9,0,5.8,0
		c0.1,0.4-0.2,0.6-0.3,0.8c-6.3,9.3-12.7,18.5-19,27.8c-0.4,0.6-0.8,0.8-1.5,0.8C34.3,83.5,32.3,83.6,30.1,83.6z"/>
	<path class="st4" d="M40.7,62.7c-0.1,2.2-0.9,4.9-3.7,6.4c-2.7,1.5-5.6,1.4-8.3-0.1c-0.8-0.4-1.4-1-1.9-1.7
		c-3.4-4.4-1.5-11.6,3.5-13.1C35.2,52.7,40.7,55.2,40.7,62.7z"/>
	<path class="st4" d="M62.2,75.1c0,8.6-7.1,10.1-11.3,8.1c-2.5-1.1-3.7-3.2-4.1-5.8c-0.6-3.6,0.7-7.1,3.4-8.7s5.6-1.6,8.3-0.1
		C61.3,70.2,62.2,72.8,62.2,75.1z"/>
</g>
<path class="st0" d="M31.1,61.9c0-0.8,0-1.6,0.3-2.3c0.3-0.7,0.7-1.3,1.5-1.3s1.2,0.5,1.4,1.2c0.5,1.6,0.5,3.2,0,4.8
	c-0.2,0.7-0.7,1.3-1.5,1.2c-0.9,0-1.2-0.6-1.5-1.3C31.1,63.5,31,62.7,31.1,61.9z"/>
<path class="st0" d="M56.2,75.8c0,0.9,0,1.8-0.4,2.6c-0.3,0.6-0.7,1-1.4,1S53.2,79,53,78.5c-0.7-1.8-0.7-3.6,0-5.4
	c0.2-0.6,0.7-0.9,1.3-0.9c0.7,0,1.1,0.4,1.4,1C56.2,73.9,56.3,74.9,56.2,75.8z"/>
</svg>
