<?xml version="1.0" encoding="utf-8"?>
<!-- Generator: Adobe Illustrator 22.1.0, SVG Export Plug-In . SVG Version: 6.00 Build 0)  -->
<svg version="1.1" id="Слой_1" xmlns="http://www.w3.org/2000/svg" xmlns:xlink="http://www.w3.org/1999/xlink" x="0px" y="0px"
	 viewBox="0 0 143.8 143.8" style="enable-background:new 0 0 143.8 143.8;" xml:space="preserve">
<style type="text/css">
	.st0{fill:#EAEAEE;}
	.st1{fill:#7D7D7D;}
</style>
<circle class="st0" cx="71.9" cy="71.9" r="71.9"/>
<path class="st1" d="M103.3,63.2c-2-12.9-12.7-17.2-21.2-15.8c-4.2,0.7-7.6,3-10.5,6.1c-0.4,0.4-0.6,0.4-1,0
	c-4.6-4.9-10.1-7.2-16.7-6.1c-4.6,0.8-8.5,2.9-11.4,6.8c-2.7,3.6-3.8,7.9-3.9,13.1c-0.1,1,0.2,2.5,0.7,3.9c1.2,3.7,3.3,6.9,5.6,9.9
	c5,6.6,10.9,12.4,17.1,17.7c2.2,1.9,4.5,3.7,7,5.1c1.4,0.8,2.7,0.8,4.1,0c0.9-0.5,1.8-1.1,2.7-1.7c5.5-4,10.5-8.7,15.2-13.6
	c3.5-3.7,6.8-7.6,9.4-12.1C103,72.5,104.1,68.1,103.3,63.2z M95.9,73.4c-2.2,3.8-5,7.1-8,10.3c-4.5,4.9-9.3,9.5-14.7,13.4
	c-2.6,1.9-1.7,2-4.2,0c-7.9-6-15.1-13-21.1-21.2c-1.3-1.8-2.5-3.8-3.3-6c-0.4-1.1-0.7-2.2-0.6-3c0.1-3.2,0.6-5.8,2-8.2
	c2.2-3.7,5.5-5.3,9.4-5.8C61,52.2,65,55,68.3,59.4c0.1,0.1,0.2,0.3,0.3,0.4c1.4,2.1,3.5,2.1,4.9,0c1.7-2.6,3.9-4.7,6.7-6
	c8-3.7,16.8,1.8,17.8,11C98.5,68.2,97.5,70.8,95.9,73.4z"/>
</svg>
