<?xml version="1.0" encoding="utf-8"?>
<!-- Generator: Adobe Illustrator 22.1.0, SVG Export Plug-In . SVG Version: 6.00 Build 0)  -->
<svg version="1.1" id="Слой_1" xmlns="http://www.w3.org/2000/svg" xmlns:xlink="http://www.w3.org/1999/xlink" x="0px" y="0px"
	 viewBox="0 0 447.2 447.2" style="enable-background:new 0 0 447.2 447.2;" xml:space="preserve">
<style type="text/css">
	.st0{fill:#C1C1C1;}
</style>
<g>
	<path class="st0" d="M223.7,180.5c-23.7-0.1-43.2,19.2-43.2,42.8c-0.1,23.7,19.2,43.2,42.8,43.2c23.7,0.1,43.2-19.2,43.2-42.8
		C266.6,200,247.4,180.6,223.7,180.5z"/>
	<path class="st0" d="M328,164c-1.6-22.2-14.6-38.1-36.2-43.4c-6.4-1.6-13-2.2-19.5-2.3c-32.4-0.5-64.9-0.5-97.3,0
		c-5.8,0.1-11.7,0.6-17.4,1.8c-19.7,4-32.3,15.4-37,35.2c-1.5,6.4-2.2,13-2.3,19.5c-0.2,24.7-0.2,49.4-0.2,74.1
		c0,11.4-0.3,22.8,1,34.2c2.1,18.7,9.8,33.5,28.2,41c8.4,3.4,17.3,4.5,26.2,4.7c16.6,0.3,33.3,0.1,50,0.1c4.8,0.2,9.6,0.3,14.4,0.2
		c15-0.2,30.1,0.2,45.1-0.9c22-1.6,38.2-14.8,43.5-36.3c1.6-6.4,2.2-13,2.3-19.5c0.2-24,0.2-47.9,0.2-71.9
		C328.9,188.2,328.9,176.1,328,164z M223.6,289.6c-35.4,0.5-66.4-29.8-66.3-66.3c0.1-35.8,30.7-66.4,66.3-65.9
		c36.9,0.6,65.9,29.1,65.9,66.1S260.5,289,223.6,289.6z M292,170c-8.5-0.1-15.1-7-15-15.7c0.1-8.5,6.9-15.2,15.5-15.1
		c8.5,0.1,15.2,6.9,15.2,15.4C307.8,163.4,300.8,170.1,292,170z"/>
	<path class="st0" d="M223.6,0C100.1,0,0,100.1,0,223.6s100.1,223.6,223.6,223.6s223.6-100.1,223.6-223.6S347.1,0,223.6,0z
		 M352.3,264.6c-0.1,11.2-0.6,22.5-3.4,33.5c-7.5,29.8-31.1,50.1-61.7,52.7c-35.3,3-70.7,1.6-106,1.4c-10.4,0-21-0.5-31.3-3.1
		c-29.4-7.4-46.7-26.2-52.7-55.7c-2-9.9-2.2-20.1-2.4-30.1c-0.4-26.8-0.4-53.5,0-80.3c0.2-11,0.5-22.2,3.2-33.1
		c7.3-29.5,26.1-46.8,55.6-52.8c10.9-2.2,22.1-2.3,33.1-2.5c12.1-0.3,24.3-0.1,36.4-0.1c18.8,0.1,37.7-0.4,56.5,0.8
		c26.6,1.8,48.8,11.4,62.5,35.7c6.1,10.9,8.7,22.9,9.4,35.3C353.3,199.1,352.6,231.9,352.3,264.6z"/>
</g>
</svg>
