<?xml version="1.0" encoding="utf-8"?>
<!-- Generator: Adobe Illustrator 22.1.0, SVG Export Plug-In . SVG Version: 6.00 Build 0)  -->
<svg version="1.1" id="Слой_1" xmlns="http://www.w3.org/2000/svg" xmlns:xlink="http://www.w3.org/1999/xlink" x="0px" y="0px"
	 viewBox="0 0 85.2 85.2" style="enable-background:new 0 0 85.2 85.2;" xml:space="preserve">
<style type="text/css">
	.st0{fill:#B4CA16;}
	.st1{fill:#FFFFFF;}
</style>
<circle class="st0" cx="42.6" cy="42.6" r="42.6"/>
<path class="st1" d="M68,27.1c0-1.6-0.9-2.6-2.1-3.4c-0.8-0.5-1.8-0.6-2.7-0.6c-13.7,0-27.4,0-41.1,0c-0.2,0-0.3,0-0.5,0
	c-2.3,0.1-4.5,1.8-4.5,4.5c0,10,0,20.1,0,30.1c0,2.2,1.4,3.6,2.9,4.2c0.6,0.2,1.3,0.3,2,0.3c13.7,0,27.4,0,41.1,0c0.2,0,0.3,0,0.5,0
	c1.5-0.1,2.8-0.7,3.7-2c0.5-0.6,0.6-1.4,0.7-2.1c0-10.3,0-20.6,0-30.8C68,27.2,68,27.1,68,27.1z M62.9,26.2
	c-0.1,0.1-0.2,0.2-0.3,0.3C56.1,33,49.5,39.6,43,46.1c-0.2,0.2-0.3,0.4-0.6,0.1c-6.7-6.6-13.4-13.3-20.2-20
	C35.8,26.2,49.3,26.2,62.9,26.2z M20.3,56.7c0,0-0.1,0.1-0.2,0.2c0-9.5,0-19,0-28.5l0.1-0.1c0.1,0.1,0.1,0.3,0.2,0.4
	c4.6,4.5,9.1,9,13.7,13.6c0.2,0.2,0.4,0.3,0.1,0.6C29.6,47.4,25,52.1,20.3,56.7z M22.3,59L22.3,59c0.1-0.2,0.2-0.3,0.3-0.4
	c4.5-4.5,9.1-9,13.6-13.6c0.3-0.3,0.5-0.3,0.8,0c1.5,1.5,3,3,4.4,4.4c0.9,0.9,1.7,0.9,2.5,0c1.5-1.5,3-2.9,4.4-4.4
	c0.2-0.2,0.3-0.2,0.5,0c4.6,4.6,9.2,9.2,13.8,13.9c0,0,0.1,0.1,0.1,0.2C49.3,59,35.8,59,22.3,59z M65.1,56.9
	c-0.1-0.1-0.3-0.2-0.4-0.3c-4.5-4.5-9-9-13.6-13.6c-0.2-0.2-0.4-0.3-0.1-0.6c4.6-4.6,9.3-9.2,13.9-13.9c0,0,0,0,0.1-0.1
	C65.1,37.9,65.1,47.4,65.1,56.9z"/>
</svg>
