<?xml version="1.0" encoding="utf-8"?>
<!-- Generator: Adobe Illustrator 22.1.0, SVG Export Plug-In . SVG Version: 6.00 Build 0)  -->
<svg version="1.1" id="Слой_1" xmlns="http://www.w3.org/2000/svg" xmlns:xlink="http://www.w3.org/1999/xlink" x="0px" y="0px"
	 viewBox="0 0 85.2 85.2" style="enable-background:new 0 0 85.2 85.2;" xml:space="preserve">
<style type="text/css">
	.st0{fill:#4E4E4E;}
	.st1{fill:#B4CA16;}
	.st2{fill:#FFFFFF;}
</style>
<g>
	<path class="st0" d="M64.9,59.1C65,59,65.1,59,65.3,59c0,0,0,0,0,0.1C65.2,59.1,65.1,59.1,64.9,59.1z"/>
	<circle class="st1" cx="42.6" cy="42.6" r="42.6"/>
	<path class="st2" d="M42.1,71.3c-1.1-0.2-2.1-0.5-2.9-1.2c-1.1-0.9-1.8-2-2-3.4c-0.1-0.5-0.3-0.7-0.7-0.8
		c-5.3-1.8-9.1-5.2-11.7-10.1c-0.2-0.3-0.4-0.5-0.7-0.6c-4.6-0.7-8.4-4.2-9.5-8.7c-1.2-4.9,0.9-9.9,5.2-12.5
		c0.4-0.3,0.7-0.6,0.8-1.1c0.9-5.2,3.3-9.5,7.2-13c3.4-3.1,7.4-4.9,11.9-5.5c4.4-0.6,8.7,0.1,12.7,2c3.8,1.8,6.8,4.5,9.1,8.1
		c1.7,2.7,2.9,5.6,3.3,8.7c0.1,0.4,0.3,0.6,0.6,0.7c3,1.8,4.9,4.5,5.5,8c0.7,4.5-0.8,8.2-4.3,11.1c-2.2,1.8-4.8,2.6-7.7,2.4
		c-2.7-0.2-5-2.5-5-5.3c-0.1-4.2-0.1-8.3,0-12.5c0-2.1,1.1-3.7,2.9-4.8c0.3-0.2,0.4-0.3,0.3-0.6c-1.6-5.6-6.7-9.9-12.4-10.6
		c-7.1-0.9-13.6,3-16.1,9.7c-0.1,0.4-0.4,0.8-0.3,1.2c0,0.4,0.6,0.4,0.9,0.7c1.5,1.2,2.3,2.7,2.4,4.6c0,4,0,8,0,12
		c0,2.5-1.4,4.5-3.8,5.3c-0.4,0.1-0.4,0.3-0.2,0.6c2.2,3.8,5.4,6.4,9.5,7.9c0.3,0.1,0.4,0.1,0.6-0.2c1.1-2.1,2.9-3.3,5.3-3.2
		c2.3,0.1,4,1.3,5,3.4c1.5,3.3-0.7,7.3-4.3,7.8c-0.2,0.1-0.4,0-0.6,0.1C42.7,71.3,42.4,71.3,42.1,71.3z"/>
</g>
</svg>
