<?xml version="1.0" encoding="utf-8"?>
<!-- Generator: Adobe Illustrator 22.1.0, SVG Export Plug-In . SVG Version: 6.00 Build 0)  -->
<svg version="1.1" id="Слой_1" xmlns="http://www.w3.org/2000/svg" xmlns:xlink="http://www.w3.org/1999/xlink" x="0px" y="0px"
	 viewBox="0 0 66.9 66.9" style="enable-background:new 0 0 66.9 66.9;" xml:space="preserve">
<style type="text/css">
	.st0{fill:#60B238;}
	.st1{fill:#FFFFFF;}
</style>
<path class="st0" d="M61.1,66.9H5.8c-3.2,0-5.8-2.6-5.8-5.8V5.8C0,2.6,2.6,0,5.8,0h55.3c3.2,0,5.8,2.6,5.8,5.8v55.3
	C66.9,64.3,64.3,66.9,61.1,66.9z"/>
<polygon points="12.1,55.2 29.1,55.2 29.1,38.2 12.1,38.2 "/>
<path class="st1" d="M46.2,20.7c0,5.8,0,19.7,0,25.5c-1.6,0-1.9,0-3.5,0c-1.5-12.6-9.4-20.5-22-22c0-1.6,0-1.8,0-3.5
	C26.5,20.7,40.4,20.7,46.2,20.7z M11.7,11.7v21.1h4.5c11.8,0,17.8,6,17.8,17.8v4.5h21.1V11.7H11.7z"/>
</svg>
