<svg xmlns="http://www.w3.org/2000/svg">
    <symbol id="authorization" viewBox="0 0 21000 21000">

        <g id="_247038856">
            <circle fill="#B4CA16" cx="10500" cy="10500" r="10500"/>
            <path fill="#FFFFFF"
                  d="M7789 5866c320,-197 715,-98 912,222 197,320 98,715 -222,912 -690,419 -1233,961 -1602,1676 -1035,2021 -148,4535 1922,5472 2342,1060 5053,-296 5595,-2810 370,-1676 -394,-3401 -1873,-4289 -222,-123 -370,-320 -370,-567 -24,-271 99,-468 321,-616 222,-148 468,-123 690,0 370,222 739,469 1035,789 2041,1985 2187,5227 321,7370 -715,813 -1602,1355 -2638,1651 -1706,525 -3912,-204 -5126,-1331 -666,-641 -1134,-1405 -1430,-2292 -669,-2340 302,-4867 2465,-6187z"/>
            <path fill="#FFFFFF"
                  d="M10599 5127c74,24 172,49 246,98 197,124 320,321 320,567 0,1578 0,3131 0,4708 0,370 -295,665 -665,665 -370,0 -665,-295 -665,-665 0,-1577 0,-3130 0,-4708 0,-296 197,-542 468,-641 24,0 49,0 74,-24 74,0 148,0 222,0z"/>
        </g>

    </symbol>
    <symbol id="phone" viewBox="0 0 85.2 85.2">
        <g>
            <path fill="#4E4E4E" d="M64.9,59.1C65,59,65.1,59,65.3,59c0,0,0,0,0,0.1C65.2,59.1,65.1,59.1,64.9,59.1z"/>
            <circle fill="#B4CA16" cx="42.6" cy="42.6" r="42.6"/>
            <path fill="#FFFFFF" d="M42.1,71.3c-1.1-0.2-2.1-0.5-2.9-1.2c-1.1-0.9-1.8-2-2-3.4c-0.1-0.5-0.3-0.7-0.7-0.8
		c-5.3-1.8-9.1-5.2-11.7-10.1c-0.2-0.3-0.4-0.5-0.7-0.6c-4.6-0.7-8.4-4.2-9.5-8.7c-1.2-4.9,0.9-9.9,5.2-12.5
		c0.4-0.3,0.7-0.6,0.8-1.1c0.9-5.2,3.3-9.5,7.2-13c3.4-3.1,7.4-4.9,11.9-5.5c4.4-0.6,8.7,0.1,12.7,2c3.8,1.8,6.8,4.5,9.1,8.1
		c1.7,2.7,2.9,5.6,3.3,8.7c0.1,0.4,0.3,0.6,0.6,0.7c3,1.8,4.9,4.5,5.5,8c0.7,4.5-0.8,8.2-4.3,11.1c-2.2,1.8-4.8,2.6-7.7,2.4
		c-2.7-0.2-5-2.5-5-5.3c-0.1-4.2-0.1-8.3,0-12.5c0-2.1,1.1-3.7,2.9-4.8c0.3-0.2,0.4-0.3,0.3-0.6c-1.6-5.6-6.7-9.9-12.4-10.6
		c-7.1-0.9-13.6,3-16.1,9.7c-0.1,0.4-0.4,0.8-0.3,1.2c0,0.4,0.6,0.4,0.9,0.7c1.5,1.2,2.3,2.7,2.4,4.6c0,4,0,8,0,12
		c0,2.5-1.4,4.5-3.8,5.3c-0.4,0.1-0.4,0.3-0.2,0.6c2.2,3.8,5.4,6.4,9.5,7.9c0.3,0.1,0.4,0.1,0.6-0.2c1.1-2.1,2.9-3.3,5.3-3.2
		c2.3,0.1,4,1.3,5,3.4c1.5,3.3-0.7,7.3-4.3,7.8c-0.2,0.1-0.4,0-0.6,0.1C42.7,71.3,42.4,71.3,42.1,71.3z"/>
        </g>
    </symbol>
    <symbol id="mail" viewBox="0 0 85.2 85.2">
        <circle fill="#B4CA16" cx="42.6" cy="42.6" r="42.6"/>
        <path fill="#FFFFFF" d="M68,27.1c0-1.6-0.9-2.6-2.1-3.4c-0.8-0.5-1.8-0.6-2.7-0.6c-13.7,0-27.4,0-41.1,0c-0.2,0-0.3,0-0.5,0
	c-2.3,0.1-4.5,1.8-4.5,4.5c0,10,0,20.1,0,30.1c0,2.2,1.4,3.6,2.9,4.2c0.6,0.2,1.3,0.3,2,0.3c13.7,0,27.4,0,41.1,0c0.2,0,0.3,0,0.5,0
	c1.5-0.1,2.8-0.7,3.7-2c0.5-0.6,0.6-1.4,0.7-2.1c0-10.3,0-20.6,0-30.8C68,27.2,68,27.1,68,27.1z M62.9,26.2
	c-0.1,0.1-0.2,0.2-0.3,0.3C56.1,33,49.5,39.6,43,46.1c-0.2,0.2-0.3,0.4-0.6,0.1c-6.7-6.6-13.4-13.3-20.2-20
	C35.8,26.2,49.3,26.2,62.9,26.2z M20.3,56.7c0,0-0.1,0.1-0.2,0.2c0-9.5,0-19,0-28.5l0.1-0.1c0.1,0.1,0.1,0.3,0.2,0.4
	c4.6,4.5,9.1,9,13.7,13.6c0.2,0.2,0.4,0.3,0.1,0.6C29.6,47.4,25,52.1,20.3,56.7z M22.3,59L22.3,59c0.1-0.2,0.2-0.3,0.3-0.4
	c4.5-4.5,9.1-9,13.6-13.6c0.3-0.3,0.5-0.3,0.8,0c1.5,1.5,3,3,4.4,4.4c0.9,0.9,1.7,0.9,2.5,0c1.5-1.5,3-2.9,4.4-4.4
	c0.2-0.2,0.3-0.2,0.5,0c4.6,4.6,9.2,9.2,13.8,13.9c0,0,0.1,0.1,0.1,0.2C49.3,59,35.8,59,22.3,59z M65.1,56.9
	c-0.1-0.1-0.3-0.2-0.4-0.3c-4.5-4.5-9-9-13.6-13.6c-0.2-0.2-0.4-0.3-0.1-0.6c4.6-4.6,9.3-9.2,13.9-13.9c0,0,0,0,0.1-0.1
	C65.1,37.9,65.1,47.4,65.1,56.9z"/>
    </symbol>
    <symbol id="promo" viewBox="0 0 87.3 109">
        <path fill="#FF4132" d="M39.4,109c-1.3-0.6-2.7-0.5-4.1-0.8C17.5,104.8,3.5,90.5,0.6,72.6C-1.3,60.8,1.1,50,8,40.2
	c2.4-3.5,5-7,7.5-10.5c0.4-0.6,0.7-0.6,1.1-0.1c1.8,1.9,3.7,3.7,5.5,5.5c1.6,1.6,3.5,2.2,5.6,1.3c2.1-0.9,3.1-2.6,3.1-4.9
	c0-4.5,0.6-8.9,2.3-13.1c3.4-8,9.1-13.8,17-17.5c0.8-0.4,1.7-1.2,2.3-0.8c0.5,0.3,0.5,1.5,0.8,2.3c1.6,5.8,4.4,11.2,7.5,16.4
	c4.5,7.5,9.9,14.3,15.7,20.9c4.8,5.4,8.3,11.6,9.9,18.7c1.7,7.2,1,14.4-1.6,21.2c-5.9,15.9-17.3,25.5-34,28.8
	c-1.2,0.2-2.4,0.1-3.6,0.6c-0.6,0-1.1,0-1.7,0c-0.4-0.2-0.7-0.2-1.1,0c-1,0-2,0-3,0c-0.1-0.1-0.3-0.1-0.5-0.1s-0.4-0.1-0.6,0.1
	C40.1,109,39.8,109,39.4,109z"/>
        <path fill="#2A2A2A" d="M44.5,109c0.4-0.3,0.7-0.3,1.1,0C45.2,109,44.9,109,44.5,109z"/>
        <path fill="#7C7C7C" d="M40.5,109c0.1-0.4,0.4-0.2,0.6-0.2c0.1,0,0.1,0.1,0.1,0.1s0,0.1-0.1,0.1C40.9,109,40.7,109,40.5,109z"/>
        <path fill="#4F4F4F" d="M41.1,109c0-0.1,0-0.1,0-0.2c0.2,0,0.4,0,0.4,0.2C41.4,109,41.2,109,41.1,109z"/>
        <g>
            <path fill="#FFFFFF" d="M30.1,83.6c2.6-3.8,5.1-7.4,7.6-11.1c4-5.8,8-11.6,11.9-17.5c0.4-0.6,0.9-0.9,1.6-0.8c1.9,0.1,3.9,0,5.8,0
		c0.1,0.4-0.2,0.6-0.3,0.8c-6.3,9.3-12.7,18.5-19,27.8c-0.4,0.6-0.8,0.8-1.5,0.8C34.3,83.5,32.3,83.6,30.1,83.6z"/>
            <path fill="#FFFFFF" d="M40.7,62.7c-0.1,2.2-0.9,4.9-3.7,6.4c-2.7,1.5-5.6,1.4-8.3-0.1c-0.8-0.4-1.4-1-1.9-1.7
		c-3.4-4.4-1.5-11.6,3.5-13.1C35.2,52.7,40.7,55.2,40.7,62.7z"/>
            <path fill="#FFFFFF" d="M62.2,75.1c0,8.6-7.1,10.1-11.3,8.1c-2.5-1.1-3.7-3.2-4.1-5.8c-0.6-3.6,0.7-7.1,3.4-8.7s5.6-1.6,8.3-0.1
		C61.3,70.2,62.2,72.8,62.2,75.1z"/>
        </g>
        <path fill="#FF4132" d="M31.1,61.9c0-0.8,0-1.6,0.3-2.3c0.3-0.7,0.7-1.3,1.5-1.3s1.2,0.5,1.4,1.2c0.5,1.6,0.5,3.2,0,4.8
	c-0.2,0.7-0.7,1.3-1.5,1.2c-0.9,0-1.2-0.6-1.5-1.3C31.1,63.5,31,62.7,31.1,61.9z"/>
        <path fill="#FF4132" d="M56.2,75.8c0,0.9,0,1.8-0.4,2.6c-0.3,0.6-0.7,1-1.4,1S53.2,79,53,78.5c-0.7-1.8-0.7-3.6,0-5.4
	c0.2-0.6,0.7-0.9,1.3-0.9c0.7,0,1.1,0.4,1.4,1C56.2,73.9,56.3,74.9,56.2,75.8z"/>

    </symbol>

    <symbol id="heart" viewBox="0 0 143.8 143.8">
        <circle fill="#EAEAEE" cx="71.9" cy="71.9" r="71.9"/>
        <path fill="#7D7D7D" d="M103.3,63.2c-2-12.9-12.7-17.2-21.2-15.8c-4.2,0.7-7.6,3-10.5,6.1c-0.4,0.4-0.6,0.4-1,0
	c-4.6-4.9-10.1-7.2-16.7-6.1c-4.6,0.8-8.5,2.9-11.4,6.8c-2.7,3.6-3.8,7.9-3.9,13.1c-0.1,1,0.2,2.5,0.7,3.9c1.2,3.7,3.3,6.9,5.6,9.9
	c5,6.6,10.9,12.4,17.1,17.7c2.2,1.9,4.5,3.7,7,5.1c1.4,0.8,2.7,0.8,4.1,0c0.9-0.5,1.8-1.1,2.7-1.7c5.5-4,10.5-8.7,15.2-13.6
	c3.5-3.7,6.8-7.6,9.4-12.1C103,72.5,104.1,68.1,103.3,63.2z M95.9,73.4c-2.2,3.8-5,7.1-8,10.3c-4.5,4.9-9.3,9.5-14.7,13.4
	c-2.6,1.9-1.7,2-4.2,0c-7.9-6-15.1-13-21.1-21.2c-1.3-1.8-2.5-3.8-3.3-6c-0.4-1.1-0.7-2.2-0.6-3c0.1-3.2,0.6-5.8,2-8.2
	c2.2-3.7,5.5-5.3,9.4-5.8C61,52.2,65,55,68.3,59.4c0.1,0.1,0.2,0.3,0.3,0.4c1.4,2.1,3.5,2.1,4.9,0c1.7-2.6,3.9-4.7,6.7-6
	c8-3.7,16.8,1.8,17.8,11C98.5,68.2,97.5,70.8,95.9,73.4z"/>
    </symbol>

    <symbol id="user" viewBox="0 0 143.8 143.8">
        <circle fill="#EAEAEE" cx="71.9" cy="71.9" r="71.9"/>
        <g>
            <path fill="#7D7D7D" d="M73.1,33.4C51.6,32.7,34,49.5,33.4,70.7c-0.6,21.8,16.5,39.1,37.6,39.6c21.1,0.4,38.7-15.9,39.4-37.3
		C111,51.6,94.2,34,73.1,33.4z M93.3,97c-5.2,4.4-11.2,7-18,7.7c-1.1,0.1-2.3,0.2-3.4,0.2c-8-0.1-15.1-2.6-21.2-7.7
		c-0.5-0.4-0.6-0.8-0.5-1.4c1.6-9.4,8.9-16.7,18.3-18.2c12-2,23.5,6.4,25.3,18.5C93.7,96.5,93.6,96.7,93.3,97z M98.3,91.6
		c-3.6-11.9-14.2-19.5-25.8-19.7c-11.9-0.3-23.2,7.2-27,19.6c-8.2-10.1-10.2-28.5,2-41.9c12.3-13.5,33.4-14.4,46.8-1.9
		C107.8,60.2,107.6,79.7,98.3,91.6z"/>
            <path fill="#7D7D7D" d="M71.9,41.6c-7.6,0-13.8,6.2-13.8,13.7c0,7.7,6.2,13.8,13.8,13.8s13.7-6.2,13.7-13.8
		C85.6,47.8,79.4,41.6,71.9,41.6z M71.8,63.6c-4.5,0-8.2-3.7-8.2-8.3c0-4.5,3.7-8.2,8.2-8.2s8.3,3.7,8.3,8.2
		C80.1,59.9,76.4,63.6,71.8,63.6z"/>
        </g>
    </symbol>

    <symbol id="basket" viewBox="0 0 143.8 143.8">
        <circle fill="#EAEAEE" cx="71.9" cy="71.9" r="71.9"/>
        <g>
            <path fill="#7D7D7D" d="M110.8,60.7c-0.1-1.3-1.3-2.3-2.7-2.3c-4.1,0-8.1,0-12.2,0c-0.6,0-0.9-0.1-1.2-0.7c-0.8-1.5-1.8-3-2.6-4.4
		c-2.3-3.8-4.6-7.7-6.9-11.5c-0.6-1.1-1.5-1.7-2.8-1.5c-2.1,0.2-3,2.4-1.9,4.2c2.6,4.3,5.2,8.7,7.8,13c0.1,0.2,0.4,0.5,0.3,0.8
		c-11.2,0-22.4,0-33.7,0c0.7-1.2,1.4-2.3,2-3.4c2.1-3.5,4.2-7,6.3-10.5c0.9-1.6,0.4-3.3-1.1-4c-1.4-0.6-2.7-0.1-3.6,1.3
		C55.3,47,52.2,52.2,49,57.5c-0.3,0.6-0.7,0.8-1.4,0.8c-4,0-8,0-12.1,0c-1.4,0-2.5,1-2.7,2.3c-0.2,1.4,0.7,2.7,2.1,3
		c0.4,0.1,0.8,0.1,1.3,0.1c0.4,0,0.6,0.1,0.7,0.6c1.6,10.1,3.3,20.3,4.9,30.4c0.9,5.5,4.9,8.9,10.4,8.9c13,0,26,0,38.9,0
		c5.6,0,9.6-3.4,10.4-8.9c1.6-9.9,3.2-19.8,4.8-29.7c0.2-1.3,0.2-1.3,1.5-1.3c0.2,0,0.5,0,0.7-0.1C110.2,63.3,111,62.1,110.8,60.7z
		 M101.2,64.7c-1.6,9.8-3.2,19.7-4.8,29.5c-0.4,2.5-2.2,4.1-4.7,4.1c-13.2,0-26.4,0-39.6,0c-2.5,0-4.3-1.6-4.7-4.1
		C46,85.3,44.5,76.4,43,67.6c-0.2-1-0.3-2-0.5-3c-0.1-0.6,0-0.7,0.6-0.7c4.7,0,9.4,0,14.1,0c4.9,0,9.8,0,14.7,0c9.5,0,19,0,28.5,0
		C101.2,63.8,101.3,63.9,101.2,64.7z"/>
            <path fill="#7D7D7D" d="M74.6,74c0-1.8-1.1-3-2.8-3c-1.6,0-2.7,1.2-2.7,3c0,4.7,0,9.3,0,14c0,1.7,1.1,2.9,2.7,3c1.6,0,2.7-1.2,2.7-2.9
		c0-2.3,0-4.6,0-7C74.6,78.7,74.6,76.4,74.6,74z"/>
            <path fill="#7D7D7D" d="M89.1,74.1c0-0.5,0-0.9-0.2-1.3c-0.5-1.3-1.7-1.9-3.1-1.7c-1.3,0.2-2.2,1.4-2.2,2.8c0,4.7,0,9.5,0,14.2
		c0,1.7,1.2,2.9,2.7,2.9c1.6,0,2.7-1.2,2.7-2.9c0-2.3,0-4.6,0-7C89.1,78.8,89.1,76.4,89.1,74.1z"/>
            <path fill="#7D7D7D" d="M57.3,71c-1.6,0-2.6,1.2-2.7,3c0,2.3,0,4.6,0,6.9s0,4.7,0,7c0,0.4,0,0.8,0.2,1.3c0.5,1.2,1.7,2,3,1.8
		c1.4-0.2,2.3-1.4,2.3-2.9c0-4.7,0-9.3,0-14C60.1,72.2,58.9,71,57.3,71z"/>
        </g>
    </symbol>

    <symbol id="button-arrow" viewBox="0 0 106.6 106.6">
        <g>
            <circle fill="#FFFFFF" cx="53.3" cy="53.3" r="53.3"/>
            <path d="M72.1,72.8c-1,0.7-2.1,0.8-3.3,0.8c-8.8,0-17.6,0-26.3,0c-2,0-3.7-1.3-4-3.1c-0.4-2.2,1.2-4.4,3.4-4.6
		c0.3,0,0.6,0,1,0c4,0,8,0,12,0c1,0,2.1,0,3.1,0s2,0.3,3,0.6c-0.1-0.1-0.3-0.3-0.4-0.4c-8.8-8.8-17.5-17.5-26.3-26.3
		c-0.9-0.9-1.5-1.8-1.4-3.1c0.1-1.6,0.8-2.8,2.2-3.4c1.5-0.7,2.9-0.4,4.2,0.6c0.2,0.2,0.5,0.4,0.7,0.7c8.7,8.7,17.4,17.4,26.1,26.1
		c0.1,0.1,0.3,0.3,0.4,0.4c0.1,0,0.1-0.1,0.1-0.1c-0.6-1.4-0.7-2.8-0.7-4.3c0-4.6,0-9.3,0-13.9c0-1.7,0.6-3,2.2-3.9
		c2.2-1.2,5.1,0.3,5.4,2.9c0,0.3,0.1,0.7,0.1,1.1c0,8.7,0,17.3,0,26c0,1.2-0.1,2.3-0.8,3.3C72.6,72.3,72.3,72.6,72.1,72.8z"/>
        </g>
    </symbol>

    <symbol id="car" viewBox="0 0 450 360.5">
        <path fill="#FF5C43" d="M295.8,70.3h44.5l86,92.7v89.8H450v37.5h-44.4c0,0.6,0,1.2,0,1.8c0,37.8-30.6,68.4-68.4,68.4
			s-68.4-30.6-68.4-68.4c0-0.6,0-1.2,0-1.8H180c0,0.6,0,1.2,0,1.8c0,37.8-30.6,68.4-68.4,68.4c-37.2,0-67.5-29.7-68.4-66.7
			c0-0.3,0-0.7,0-1.1v-0.6v-86.2h114v-22.4h-17.4H43.2H0v-22.4h43.2h96.6h41.4v-22.5h-41.4H43.2H25.8v-22.4h17.4h96.6H201V93.8
			h-61.2H43.2H0V71.4h43.2V37.2C43.2,16.7,59.9,0,80.4,0h178.2c20.5,0,37.2,16.7,37.2,37.2V60L295.8,70.3L295.8,70.3z M295.8,98.7
			V174H398l0,0l-70-75.3L295.8,98.7L295.8,98.7z M111.6,325.1c18.2,0,33-14.8,33-33s-14.8-33-33-33s-33,14.8-33,33
			C78.6,310.3,93.4,325.1,111.6,325.1L111.6,325.1z M337.2,325.1c18.2,0,33-14.8,33-33s-14.8-33-33-33s-33,14.8-33,33
			S319,325.1,337.2,325.1L337.2,325.1z"/>
    </symbol>

    <symbol id="cash" viewBox="0 0 576 512">
        <path fill="#ff5c43" d="M64 64C28.7 64 0 92.7 0 128V384c0 35.3 28.7 64 64 64H512c35.3 0 64-28.7 64-64V128c0-35.3-28.7-64-64-64H64zm64 320H64V320c35.3 0 64 28.7 64 64zM64 192V128h64c0 35.3-28.7 64-64 64zM448 384c0-35.3 28.7-64 64-64v64H448zm64-192c-35.3 0-64-28.7-64-64h64v64zM288 160a96 96 0 1 1 0 192 96 96 0 1 1 0-192z"/>
    </symbol>

    <symbol id="credit-card" viewBox="0 0 576 512">
        <path fill="#ff5c43" d="M64 32C28.7 32 0 60.7 0 96v32H576V96c0-35.3-28.7-64-64-64H64zM576 224H0V416c0 35.3 28.7 64 64 64H512c35.3 0 64-28.7 64-64V224zM112 352h64c8.8 0 16 7.2 16 16s-7.2 16-16 16H112c-8.8 0-16-7.2-16-16s7.2-16 16-16zm112 16c0-8.8 7.2-16 16-16H368c8.8 0 16 7.2 16 16s-7.2 16-16 16H240c-8.8 0-16-7.2-16-16z"/>
    </symbol>

    <symbol id="credit" viewBox="0 0 512 512">
        <path fill="#ff5c43" d="M501.6 92.1L267.2 2a32 32 0 0 0 -22.5 0L10.4 92.1A16 16 0 0 0 0 107.1V144c0 8.8 7.2 16 16 16h480c8.8 0 16-7.2 16-16v-36.9c0-6.7-4.1-12.6-10.4-15zM64 192v160H48c-8.8 0-16 7.2-16 16v48h448v-48c0-8.8-7.2-16-16-16h-16V192h-64v160h-96V192h-64v160h-96V192H64zm432 256H16c-8.8 0-16 7.2-16 16v32c0 8.8 7.2 16 16 16h480c8.8 0 16-7.2 16-16v-32c0-8.8-7.2-16-16-16z"/>
    </symbol>

    <symbol id="nova-post" viewBox="0 0 24 24">
        <path fill="#ff5c43" d="M11.9 2h.5l4 4c-.058.058-.082.082-.092.111-.008.022-.008.047-.008.089h-1.4c-.7 0-.9.2-.9.9v2.2c0 .5-.2.7-.7.7h-2.4c-.4 0-.6-.2-.6-.6V7c0-.6-.2-.8-.8-.8-.5 0-1 0-1.6-.1.36-.479.754-.886 1.142-1.286.26-.268.517-.533.758-.814.7-.6 1.4-1.3 2.1-2zM6 16.1c-1.4-1.3-2.7-2.6-4-4v-.3c.638-.638 1.3-1.276 1.974-1.926C4.674 9.2 5.387 8.513 6.1 7.8V16zM14.7 17.9c-.6 0-.8-.1-.8-.8v-2.4c0-.5-.2-.7-.7-.7h-2.3c-.5 0-.7.2-.7.7v2.4c0 .6-.2.8-.8.8H7.8c.2.3.3.4.4.5l3.3 3.3c.3.3.6.3 1 0l3.3-3.3c.05-.05.075-.1.1-.15s.05-.1.1-.15v-.2zM18.6 8.3c1 1.1 2 2.1 3.1 3.2.4.4.4.6 0 1-1 1.1-2 2.1-3.1 3.2l-.4.4V7.9z"/>
    </symbol>

    <symbol id="building" viewBox="0 0 384 512">
        <path fill="#ff5c43" d="M48 0C21.5 0 0 21.5 0 48V464c0 26.5 21.5 48 48 48h96V432c0-26.5 21.5-48 48-48s48 21.5 48 48v80h96c26.5 0 48-21.5 48-48V48c0-26.5-21.5-48-48-48H48zM64 240c0-8.8 7.2-16 16-16h32c8.8 0 16 7.2 16 16v32c0 8.8-7.2 16-16 16H80c-8.8 0-16-7.2-16-16V240zm112-16h32c8.8 0 16 7.2 16 16v32c0 8.8-7.2 16-16 16H176c-8.8 0-16-7.2-16-16V240c0-8.8 7.2-16 16-16zm80 16c0-8.8 7.2-16 16-16h32c8.8 0 16 7.2 16 16v32c0 8.8-7.2 16-16 16H272c-8.8 0-16-7.2-16-16V240zM80 96h32c8.8 0 16 7.2 16 16v32c0 8.8-7.2 16-16 16H80c-8.8 0-16-7.2-16-16V112c0-8.8 7.2-16 16-16zm80 16c0-8.8 7.2-16 16-16h32c8.8 0 16 7.2 16 16v32c0 8.8-7.2 16-16 16H176c-8.8 0-16-7.2-16-16V112zM272 96h32c8.8 0 16 7.2 16 16v32c0 8.8-7.2 16-16 16H272c-8.8 0-16-7.2-16-16V112c0-8.8 7.2-16 16-16z"/>
    </symbol>

    <symbol id="facebook" viewBox="0 0 447.1 447.2">
        <g>
            <path d="M217.1,447.1c2.2,0.1,4.3,0.1,6.5,0.1s4.3,0,6.5-0.1C225.7,447.1,221.4,447.1,217.1,447.1z"/>
            <path d="M223.6,0C100.1,0,0,100.1,0,223.6c0,111.1,81,203.3,187.2,220.6c0.1-0.8,0-1.6,0-2.4c0-54,0-108,0.1-161.9
		c0-3.8-1.4-4.8-5-4.8c-14.2,0.1-28.3,0-42.5,0.1c-3.6,0-5-1-5-4.8c0.2-17.2,0.2-34.3,0-51.5c0-3.9,1.5-4.8,5-4.8
		c14,0.1,28-0.1,42,0.1c4.1,0.1,5.4-1.3,5.4-5.4c0.1-16.3-0.2-32.6,0.6-48.9c2-39.3,32-69.2,71.5-69.9c16-0.3,32-0.7,47.9,0.8
		c3.5,0.3,5,1.1,4.9,4.9c-0.2,15.5-0.2,31,0,46.5c0.1,4.2-1.7,4.9-5.3,4.9c-12,0.2-24-0.8-35.9,0.8c-13.3,1.7-20.6,9.5-20.8,23
		c-0.2,12.3,0,24.7-0.2,37c-0.1,4,1.2,5.2,5.1,5.1c16.3-0.2,32.7,0,49-0.1c4,0,5,0.9,4.4,5.1c-2.4,16.4-4.4,33-6.4,49.5
		c-0.5,4.3-1.7,6.7-7,6.5c-14-0.4-28-0.1-42-0.2c-3.6,0-5,0.9-5,4.8c0.1,54.3,0.1,108.6,0.1,162.9c0,1.6-0.2,3.3,1,4.1
		c111.4-12.7,198-107.3,198-222.1C447.2,100.1,347.1,0,223.6,0z"/>
        </g>
    </symbol>

    <symbol id="instagram" viewBox="0 0 447.2 447.2">
        <g>
            <path  d="M223.7,180.5c-23.7-0.1-43.2,19.2-43.2,42.8c-0.1,23.7,19.2,43.2,42.8,43.2c23.7,0.1,43.2-19.2,43.2-42.8
		C266.6,200,247.4,180.6,223.7,180.5z"/>
            <path  d="M328,164c-1.6-22.2-14.6-38.1-36.2-43.4c-6.4-1.6-13-2.2-19.5-2.3c-32.4-0.5-64.9-0.5-97.3,0
		c-5.8,0.1-11.7,0.6-17.4,1.8c-19.7,4-32.3,15.4-37,35.2c-1.5,6.4-2.2,13-2.3,19.5c-0.2,24.7-0.2,49.4-0.2,74.1
		c0,11.4-0.3,22.8,1,34.2c2.1,18.7,9.8,33.5,28.2,41c8.4,3.4,17.3,4.5,26.2,4.7c16.6,0.3,33.3,0.1,50,0.1c4.8,0.2,9.6,0.3,14.4,0.2
		c15-0.2,30.1,0.2,45.1-0.9c22-1.6,38.2-14.8,43.5-36.3c1.6-6.4,2.2-13,2.3-19.5c0.2-24,0.2-47.9,0.2-71.9
		C328.9,188.2,328.9,176.1,328,164z M223.6,289.6c-35.4,0.5-66.4-29.8-66.3-66.3c0.1-35.8,30.7-66.4,66.3-65.9
		c36.9,0.6,65.9,29.1,65.9,66.1S260.5,289,223.6,289.6z M292,170c-8.5-0.1-15.1-7-15-15.7c0.1-8.5,6.9-15.2,15.5-15.1
		c8.5,0.1,15.2,6.9,15.2,15.4C307.8,163.4,300.8,170.1,292,170z"/>
            <path  d="M223.6,0C100.1,0,0,100.1,0,223.6s100.1,223.6,223.6,223.6s223.6-100.1,223.6-223.6S347.1,0,223.6,0z
		 M352.3,264.6c-0.1,11.2-0.6,22.5-3.4,33.5c-7.5,29.8-31.1,50.1-61.7,52.7c-35.3,3-70.7,1.6-106,1.4c-10.4,0-21-0.5-31.3-3.1
		c-29.4-7.4-46.7-26.2-52.7-55.7c-2-9.9-2.2-20.1-2.4-30.1c-0.4-26.8-0.4-53.5,0-80.3c0.2-11,0.5-22.2,3.2-33.1
		c7.3-29.5,26.1-46.8,55.6-52.8c10.9-2.2,22.1-2.3,33.1-2.5c12.1-0.3,24.3-0.1,36.4-0.1c18.8,0.1,37.7-0.4,56.5,0.8
		c26.6,1.8,48.8,11.4,62.5,35.7c6.1,10.9,8.7,22.9,9.4,35.3C353.3,199.1,352.6,231.9,352.3,264.6z"/>
        </g>
    </symbol>

    <symbol id="slider-arrow" viewBox="0 0 141.8 141.8">
        <circle cx="70.9" cy="70.9" r="70.9"/>
        <path fill="#FFFFFF" d="M98.1,71.5c-0.2,1.2-0.9,2.1-1.8,2.9C90.1,80.6,83.9,86.8,77.7,93c-1.4,1.4-3.5,1.7-5,0.6
	c-1.9-1.3-2.3-3.9-0.8-5.7c0.2-0.2,0.4-0.5,0.6-0.7c2.8-2.8,5.7-5.7,8.5-8.5c0.7-0.7,1.5-1.5,2.2-2.2s1.6-1.2,2.6-1.7
	c-0.2,0-0.4,0-0.5,0c-12.4,0-24.8,0-37.2,0c-1.2,0-2.4-0.3-3.2-1.2c-1.1-1.2-1.4-2.5-0.9-4c0.6-1.5,1.8-2.4,3.4-2.6c0.3,0,0.6,0,1,0
	c12.3,0,24.6,0,36.9,0c0.2,0,0.4,0,0.6,0c0-0.1,0-0.1-0.1-0.1c-1.4-0.6-2.5-1.5-3.5-2.5c-3.3-3.3-6.5-6.6-9.8-9.9
	c-1.2-1.2-1.7-2.6-1.2-4.3c0.7-2.4,3.8-3.4,5.9-1.8c0.3,0.2,0.5,0.5,0.8,0.7c6.1,6.1,12.3,12.3,18.4,18.4c0.8,0.8,1.6,1.7,1.8,2.9
	C98.1,70.8,98.1,71.1,98.1,71.5z"/>
    </symbol>
    <!-- Добавьте больше символов по мере необходимости -->
</svg>
