<?xml version="1.0" encoding="utf-8"?>
<!-- Generator: Adobe Illustrator 22.1.0, SVG Export Plug-In . SVG Version: 6.00 Build 0)  -->
<svg version="1.1" id="Слой_1" xmlns="http://www.w3.org/2000/svg" xmlns:xlink="http://www.w3.org/1999/xlink" x="0px" y="0px"
	 viewBox="0 0 143.8 143.8" style="enable-background:new 0 0 143.8 143.8;" xml:space="preserve">
<style type="text/css">
	.st0{fill:#EAEAEE;}
	.st1{fill:#7D7D7D;}
</style>
<circle class="st0" cx="71.9" cy="71.9" r="71.9"/>
<g>
	<path class="st1" d="M73.1,33.4C51.6,32.7,34,49.5,33.4,70.7c-0.6,21.8,16.5,39.1,37.6,39.6c21.1,0.4,38.7-15.9,39.4-37.3
		C111,51.6,94.2,34,73.1,33.4z M93.3,97c-5.2,4.4-11.2,7-18,7.7c-1.1,0.1-2.3,0.2-3.4,0.2c-8-0.1-15.1-2.6-21.2-7.7
		c-0.5-0.4-0.6-0.8-0.5-1.4c1.6-9.4,8.9-16.7,18.3-18.2c12-2,23.5,6.4,25.3,18.5C93.7,96.5,93.6,96.7,93.3,97z M98.3,91.6
		c-3.6-11.9-14.2-19.5-25.8-19.7c-11.9-0.3-23.2,7.2-27,19.6c-8.2-10.1-10.2-28.5,2-41.9c12.3-13.5,33.4-14.4,46.8-1.9
		C107.8,60.2,107.6,79.7,98.3,91.6z"/>
	<path class="st1" d="M71.9,41.6c-7.6,0-13.8,6.2-13.8,13.7c0,7.7,6.2,13.8,13.8,13.8s13.7-6.2,13.7-13.8
		C85.6,47.8,79.4,41.6,71.9,41.6z M71.8,63.6c-4.5,0-8.2-3.7-8.2-8.3c0-4.5,3.7-8.2,8.2-8.2s8.3,3.7,8.3,8.2
		C80.1,59.9,76.4,63.6,71.8,63.6z"/>
</g>
</svg>
